<?xml version="1.0" encoding="utf-8" standalone="no"?>
<!DOCTYPE svg PUBLIC "-//W3C//DTD SVG 1.1//EN"
  "http://www.w3.org/Graphics/SVG/1.1/DTD/svg11.dtd">
<!-- Created with matplotlib (https://matplotlib.org/) -->
<svg height="455.427701pt" version="1.1" viewBox="0 0 894.048213 455.427701" width="894.048213pt" xmlns="http://www.w3.org/2000/svg" xmlns:xlink="http://www.w3.org/1999/xlink">
 <metadata>
  <rdf:RDF xmlns:cc="http://creativecommons.org/ns#" xmlns:dc="http://purl.org/dc/elements/1.1/" xmlns:rdf="http://www.w3.org/1999/02/22-rdf-syntax-ns#">
   <cc:Work>
    <dc:type rdf:resource="http://purl.org/dc/dcmitype/StillImage"/>
    <dc:date>2020-09-07T21:45:17.842272</dc:date>
    <dc:format>image/svg+xml</dc:format>
    <dc:creator>
     <cc:Agent>
      <dc:title>Matplotlib v3.3.1, https://matplotlib.org/</dc:title>
     </cc:Agent>
    </dc:creator>
   </cc:Work>
  </rdf:RDF>
 </metadata>
 <defs>
  <style type="text/css">*{stroke-linecap:butt;stroke-linejoin:round;}</style>
 </defs>
 <g id="figure_1">
  <g id="patch_1">
   <path d="M 0 455.427701 
L 894.048213 455.427701 
L 894.048213 0 
L 0 0 
z
" style="fill:none;"/>
  </g>
  <g id="axes_1">
   <g id="patch_2">
    <path d="M 53.448213 406.724405 
L 890.448213 406.724405 
L 890.448213 26.204405 
L 53.448213 26.204405 
z
" style="fill:#ffffff;"/>
   </g>
   <g id="matplotlib.axis_1">
    <g id="xtick_1">
     <g id="line2d_1">
      <path clip-path="url(#p7ed9bfa38f)" d="M 91.493668 406.724405 
L 91.493668 26.204405 
" style="fill:none;stroke:#b0b0b0;stroke-linecap:square;stroke-width:0.5;"/>
     </g>
     <g id="line2d_2">
      <defs>
       <path d="M 0 0 
L 0 -3 
" id="m9e6d61dff9" style="stroke:#000000;stroke-width:0.5;"/>
      </defs>
      <g>
       <use style="stroke:#000000;stroke-width:0.5;" x="91.493668" xlink:href="#m9e6d61dff9" y="406.724405"/>
      </g>
     </g>
     <g id="line2d_3">
      <defs>
       <path d="M 0 0 
L 0 3 
" id="m34243c018d" style="stroke:#000000;stroke-width:0.5;"/>
      </defs>
      <g>
       <use style="stroke:#000000;stroke-width:0.5;" x="91.493668" xlink:href="#m34243c018d" y="26.204405"/>
      </g>
     </g>
     <g id="text_1">
      <!-- $\mathdefault{0.0}$ -->
      <g transform="translate(79.645855 424.061402)scale(0.2 -0.2)">
       <defs>
        <path d="M 42 31.640625 
C 42 37.75 41.90625 48.125 37.703125 56.109375 
C 34 63.109375 28.09375 65.59375 22.90625 65.59375 
C 18.09375 65.59375 12 63.40625 8.203125 56.203125 
C 4.203125 48.71875 3.796875 39.4375 3.796875 31.640625 
C 3.796875 25.953125 3.90625 17.28125 7 9.671875 
C 11.296875 -0.609375 19 -2 22.90625 -2 
C 27.5 -2 34.5 -0.109375 38.59375 9.375 
C 41.59375 16.28125 42 24.359375 42 31.640625 
z
M 22.90625 -0.40625 
C 16.5 -0.40625 12.703125 5.078125 11.296875 12.6875 
C 10.203125 18.5625 10.203125 27.15625 10.203125 32.75 
C 10.203125 40.4375 10.203125 46.828125 11.5 52.921875 
C 13.40625 61.390625 19 64 22.90625 64 
C 27 64 32.296875 61.296875 34.203125 53.125 
C 35.5 47.4375 35.59375 40.734375 35.59375 32.75 
C 35.59375 26.25 35.59375 18.265625 34.40625 12.375 
C 32.296875 1.484375 26.40625 -0.40625 22.90625 -0.40625 
z
" id="CMR17-48"/>
        <path d="M 18.40625 4.796875 
C 18.40625 7.6875 16 9.671875 13.59375 9.671875 
C 10.703125 9.671875 8.703125 7.28125 8.703125 4.890625 
C 8.703125 2 11.09375 0 13.5 0 
C 16.40625 0 18.40625 2.390625 18.40625 4.796875 
z
" id="CMMI12-58"/>
       </defs>
       <use transform="scale(0.996264)" xlink:href="#CMR17-48"/>
       <use transform="translate(45.690477 0)scale(0.996264)" xlink:href="#CMMI12-58"/>
       <use transform="translate(72.787654 0)scale(0.996264)" xlink:href="#CMR17-48"/>
      </g>
     </g>
    </g>
    <g id="xtick_2">
     <g id="line2d_4">
      <path clip-path="url(#p7ed9bfa38f)" d="M 210.678339 406.724405 
L 210.678339 26.204405 
" style="fill:none;stroke:#b0b0b0;stroke-linecap:square;stroke-width:0.5;"/>
     </g>
     <g id="line2d_5">
      <g>
       <use style="stroke:#000000;stroke-width:0.5;" x="210.678339" xlink:href="#m9e6d61dff9" y="406.724405"/>
      </g>
     </g>
     <g id="line2d_6">
      <g>
       <use style="stroke:#000000;stroke-width:0.5;" x="210.678339" xlink:href="#m34243c018d" y="26.204405"/>
      </g>
     </g>
     <g id="text_2">
      <!-- $\mathdefault{0.5}$ -->
      <g transform="translate(198.830526 424.061402)scale(0.2 -0.2)">
       <defs>
        <path d="M 11.40625 57.6875 
C 12.40625 57.28125 16.5 56 20.703125 56 
C 30 56 35.09375 61.109375 38 64.0625 
C 38 64.953125 38 65.5 37.40625 65.5 
C 37.296875 65.5 37.09375 65.5 36.296875 65.046875 
C 32.796875 63.40625 28.703125 62.078125 23.703125 62.078125 
C 20.703125 62.078125 16.203125 62.484375 11.296875 64.671875 
C 10.203125 65.171875 10 65.171875 9.90625 65.171875 
C 9.40625 65.171875 9.296875 65.0625 9.296875 63.078125 
L 9.296875 34.421875 
C 9.296875 32.640625 9.296875 32.140625 10.296875 32.140625 
C 10.796875 32.140625 11 32.34375 11.5 33.03125 
C 14.703125 37.515625 19.09375 39.40625 24.09375 39.40625 
C 27.59375 39.40625 35.09375 37.21875 35.09375 20.140625 
C 35.09375 16.953125 35.09375 11.171875 32.09375 6.578125 
C 29.59375 2.484375 25.703125 0.390625 21.40625 0.390625 
C 14.796875 0.390625 8.09375 5 6.296875 12.71875 
C 6.703125 12.609375 7.5 12.421875 7.90625 12.421875 
C 9.203125 12.421875 11.703125 13.125 11.703125 16.21875 
C 11.703125 18.90625 9.796875 20 7.90625 20 
C 5.59375 20 4.09375 18.59375 4.09375 15.796875 
C 4.09375 7.09375 11 -2 21.59375 -2 
C 31.90625 -2 41.703125 6.875 41.703125 19.75 
C 41.703125 31.71875 33.90625 41 24.203125 41 
C 19.09375 41 14.796875 39.109375 11.40625 35.53125 
z
" id="CMR17-53"/>
       </defs>
       <use transform="scale(0.996264)" xlink:href="#CMR17-48"/>
       <use transform="translate(45.690477 0)scale(0.996264)" xlink:href="#CMMI12-58"/>
       <use transform="translate(72.787654 0)scale(0.996264)" xlink:href="#CMR17-53"/>
      </g>
     </g>
    </g>
    <g id="xtick_3">
     <g id="line2d_7">
      <path clip-path="url(#p7ed9bfa38f)" d="M 329.86301 406.724405 
L 329.86301 26.204405 
" style="fill:none;stroke:#b0b0b0;stroke-linecap:square;stroke-width:0.5;"/>
     </g>
     <g id="line2d_8">
      <g>
       <use style="stroke:#000000;stroke-width:0.5;" x="329.86301" xlink:href="#m9e6d61dff9" y="406.724405"/>
      </g>
     </g>
     <g id="line2d_9">
      <g>
       <use style="stroke:#000000;stroke-width:0.5;" x="329.86301" xlink:href="#m34243c018d" y="26.204405"/>
      </g>
     </g>
     <g id="text_3">
      <!-- $\mathdefault{1.0}$ -->
      <g transform="translate(318.015197 424.061402)scale(0.2 -0.2)">
       <defs>
        <path d="M 26.59375 63.40625 
C 26.59375 65.5 26.5 65.5 25.09375 65.5 
C 21.203125 61.1875 15.296875 59.796875 9.703125 59.796875 
C 9.40625 59.796875 8.90625 59.796875 8.796875 59.5 
C 8.703125 59.296875 8.703125 59.09375 8.703125 57 
C 11.796875 57 17 57.59375 21 59.984375 
L 21 7.203125 
C 21 3.6875 20.796875 2.5 12.203125 2.5 
L 9.203125 2.5 
L 9.203125 0 
C 14 0 19 0 23.796875 0 
C 28.59375 0 33.59375 0 38.40625 0 
L 38.40625 2.5 
L 35.40625 2.5 
C 26.796875 2.5 26.59375 3.59375 26.59375 7.15625 
z
" id="CMR17-49"/>
       </defs>
       <use transform="scale(0.996264)" xlink:href="#CMR17-49"/>
       <use transform="translate(45.690477 0)scale(0.996264)" xlink:href="#CMMI12-58"/>
       <use transform="translate(72.787654 0)scale(0.996264)" xlink:href="#CMR17-48"/>
      </g>
     </g>
    </g>
    <g id="xtick_4">
     <g id="line2d_10">
      <path clip-path="url(#p7ed9bfa38f)" d="M 449.047681 406.724405 
L 449.047681 26.204405 
" style="fill:none;stroke:#b0b0b0;stroke-linecap:square;stroke-width:0.5;"/>
     </g>
     <g id="line2d_11">
      <g>
       <use style="stroke:#000000;stroke-width:0.5;" x="449.047681" xlink:href="#m9e6d61dff9" y="406.724405"/>
      </g>
     </g>
     <g id="line2d_12">
      <g>
       <use style="stroke:#000000;stroke-width:0.5;" x="449.047681" xlink:href="#m34243c018d" y="26.204405"/>
      </g>
     </g>
     <g id="text_4">
      <!-- $\mathdefault{1.5}$ -->
      <g transform="translate(437.199868 424.061402)scale(0.2 -0.2)">
       <use transform="scale(0.996264)" xlink:href="#CMR17-49"/>
       <use transform="translate(45.690477 0)scale(0.996264)" xlink:href="#CMMI12-58"/>
       <use transform="translate(72.787654 0)scale(0.996264)" xlink:href="#CMR17-53"/>
      </g>
     </g>
    </g>
    <g id="xtick_5">
     <g id="line2d_13">
      <path clip-path="url(#p7ed9bfa38f)" d="M 568.232352 406.724405 
L 568.232352 26.204405 
" style="fill:none;stroke:#b0b0b0;stroke-linecap:square;stroke-width:0.5;"/>
     </g>
     <g id="line2d_14">
      <g>
       <use style="stroke:#000000;stroke-width:0.5;" x="568.232352" xlink:href="#m9e6d61dff9" y="406.724405"/>
      </g>
     </g>
     <g id="line2d_15">
      <g>
       <use style="stroke:#000000;stroke-width:0.5;" x="568.232352" xlink:href="#m34243c018d" y="26.204405"/>
      </g>
     </g>
     <g id="text_5">
      <!-- $\mathdefault{2.0}$ -->
      <g transform="translate(556.384539 424.061402)scale(0.2 -0.2)">
       <defs>
        <path d="M 41.703125 15.453125 
L 39.90625 15.453125 
C 38.90625 8.375 38.09375 7.171875 37.703125 6.5625 
C 37.203125 5.765625 30 5.765625 28.59375 5.765625 
L 9.40625 5.765625 
C 13 9.671875 20 16.75 28.5 24.953125 
C 34.59375 30.734375 41.703125 37.53125 41.703125 47.421875 
C 41.703125 59.21875 32.296875 66 21.796875 66 
C 10.796875 66 4.09375 56.3125 4.09375 47.34375 
C 4.09375 43.4375 7 42.9375 8.203125 42.9375 
C 9.203125 42.9375 12.203125 43.546875 12.203125 47.03125 
C 12.203125 50.109375 9.59375 51 8.203125 51 
C 7.59375 51 7 50.90625 6.59375 50.703125 
C 8.5 59.21875 14.296875 63.40625 20.40625 63.40625 
C 29.09375 63.40625 34.796875 56.515625 34.796875 47.421875 
C 34.796875 38.734375 29.703125 31.25 24 24.75 
L 4.09375 2.28125 
L 4.09375 0 
L 39.296875 0 
z
" id="CMR17-50"/>
       </defs>
       <use transform="scale(0.996264)" xlink:href="#CMR17-50"/>
       <use transform="translate(45.690477 0)scale(0.996264)" xlink:href="#CMMI12-58"/>
       <use transform="translate(72.787654 0)scale(0.996264)" xlink:href="#CMR17-48"/>
      </g>
     </g>
    </g>
    <g id="xtick_6">
     <g id="line2d_16">
      <path clip-path="url(#p7ed9bfa38f)" d="M 687.417023 406.724405 
L 687.417023 26.204405 
" style="fill:none;stroke:#b0b0b0;stroke-linecap:square;stroke-width:0.5;"/>
     </g>
     <g id="line2d_17">
      <g>
       <use style="stroke:#000000;stroke-width:0.5;" x="687.417023" xlink:href="#m9e6d61dff9" y="406.724405"/>
      </g>
     </g>
     <g id="line2d_18">
      <g>
       <use style="stroke:#000000;stroke-width:0.5;" x="687.417023" xlink:href="#m34243c018d" y="26.204405"/>
      </g>
     </g>
     <g id="text_6">
      <!-- $\mathdefault{2.5}$ -->
      <g transform="translate(675.56921 424.061402)scale(0.2 -0.2)">
       <use transform="scale(0.996264)" xlink:href="#CMR17-50"/>
       <use transform="translate(45.690477 0)scale(0.996264)" xlink:href="#CMMI12-58"/>
       <use transform="translate(72.787654 0)scale(0.996264)" xlink:href="#CMR17-53"/>
      </g>
     </g>
    </g>
    <g id="xtick_7">
     <g id="line2d_19">
      <path clip-path="url(#p7ed9bfa38f)" d="M 806.601695 406.724405 
L 806.601695 26.204405 
" style="fill:none;stroke:#b0b0b0;stroke-linecap:square;stroke-width:0.5;"/>
     </g>
     <g id="line2d_20">
      <g>
       <use style="stroke:#000000;stroke-width:0.5;" x="806.601695" xlink:href="#m9e6d61dff9" y="406.724405"/>
      </g>
     </g>
     <g id="line2d_21">
      <g>
       <use style="stroke:#000000;stroke-width:0.5;" x="806.601695" xlink:href="#m34243c018d" y="26.204405"/>
      </g>
     </g>
     <g id="text_7">
      <!-- $\mathdefault{3.0}$ -->
      <g transform="translate(794.753881 424.061402)scale(0.2 -0.2)">
       <defs>
        <path d="M 22.09375 33.703125 
C 31 33.703125 34.90625 25.96875 34.90625 17.03125 
C 34.90625 5 28.5 0.390625 22.703125 0.390625 
C 17.40625 0.390625 8.796875 3.03125 6.09375 10.828125 
C 6.59375 10.625 7.09375 10.625 7.59375 10.625 
C 10 10.625 11.796875 12.21875 11.796875 14.8125 
C 11.796875 17.703125 9.59375 19 7.59375 19 
C 5.90625 19 3.296875 18.203125 3.296875 14.46875 
C 3.296875 5.234375 12.296875 -2 22.90625 -2 
C 34 -2 42.5 6.71875 42.5 16.953125 
C 42.5 26.671875 34.5 33.703125 25 34.796875 
C 32.59375 36.375 39.90625 43.0625 39.90625 52.015625 
C 39.90625 59.6875 32 65.296875 23 65.296875 
C 13.90625 65.296875 5.90625 59.828125 5.90625 52.015625 
C 5.90625 48.59375 8.5 48 9.796875 48 
C 11.90625 48 13.703125 49.296875 13.703125 51.890625 
C 13.703125 54.46875 11.90625 55.765625 9.796875 55.765625 
C 9.40625 55.765625 8.90625 55.765625 8.5 55.578125 
C 11.40625 61.859375 19.296875 63 22.796875 63 
C 26.296875 63 32.90625 61.328125 32.90625 51.875 
C 32.90625 49.109375 32.5 44.1875 29.09375 39.84375 
C 26.09375 36 22.703125 36 19.40625 35.6875 
C 18.90625 35.6875 16.59375 35.453125 16.203125 35.453125 
C 15.5 35.359375 15.09375 35.265625 15.09375 34.5 
C 15.09375 33.796875 15.203125 33.703125 17.203125 33.703125 
z
" id="CMR17-51"/>
       </defs>
       <use transform="scale(0.996264)" xlink:href="#CMR17-51"/>
       <use transform="translate(45.690477 0)scale(0.996264)" xlink:href="#CMMI12-58"/>
       <use transform="translate(72.787654 0)scale(0.996264)" xlink:href="#CMR17-48"/>
      </g>
     </g>
    </g>
    <g id="xtick_8">
     <g id="line2d_22">
      <defs>
       <path d="M 0 0 
L 0 -1.5 
" id="m20e40ffe24" style="stroke:#000000;stroke-width:0.5;"/>
      </defs>
      <g>
       <use style="stroke:#000000;stroke-width:0.5;" x="67.656734" xlink:href="#m20e40ffe24" y="406.724405"/>
      </g>
     </g>
     <g id="line2d_23">
      <defs>
       <path d="M 0 0 
L 0 1.5 
" id="m5f5a1a234e" style="stroke:#000000;stroke-width:0.5;"/>
      </defs>
      <g>
       <use style="stroke:#000000;stroke-width:0.5;" x="67.656734" xlink:href="#m5f5a1a234e" y="26.204405"/>
      </g>
     </g>
    </g>
    <g id="xtick_9">
     <g id="line2d_24">
      <g>
       <use style="stroke:#000000;stroke-width:0.5;" x="115.330602" xlink:href="#m20e40ffe24" y="406.724405"/>
      </g>
     </g>
     <g id="line2d_25">
      <g>
       <use style="stroke:#000000;stroke-width:0.5;" x="115.330602" xlink:href="#m5f5a1a234e" y="26.204405"/>
      </g>
     </g>
    </g>
    <g id="xtick_10">
     <g id="line2d_26">
      <g>
       <use style="stroke:#000000;stroke-width:0.5;" x="139.167536" xlink:href="#m20e40ffe24" y="406.724405"/>
      </g>
     </g>
     <g id="line2d_27">
      <g>
       <use style="stroke:#000000;stroke-width:0.5;" x="139.167536" xlink:href="#m5f5a1a234e" y="26.204405"/>
      </g>
     </g>
    </g>
    <g id="xtick_11">
     <g id="line2d_28">
      <g>
       <use style="stroke:#000000;stroke-width:0.5;" x="163.00447" xlink:href="#m20e40ffe24" y="406.724405"/>
      </g>
     </g>
     <g id="line2d_29">
      <g>
       <use style="stroke:#000000;stroke-width:0.5;" x="163.00447" xlink:href="#m5f5a1a234e" y="26.204405"/>
      </g>
     </g>
    </g>
    <g id="xtick_12">
     <g id="line2d_30">
      <g>
       <use style="stroke:#000000;stroke-width:0.5;" x="186.841405" xlink:href="#m20e40ffe24" y="406.724405"/>
      </g>
     </g>
     <g id="line2d_31">
      <g>
       <use style="stroke:#000000;stroke-width:0.5;" x="186.841405" xlink:href="#m5f5a1a234e" y="26.204405"/>
      </g>
     </g>
    </g>
    <g id="xtick_13">
     <g id="line2d_32">
      <g>
       <use style="stroke:#000000;stroke-width:0.5;" x="234.515273" xlink:href="#m20e40ffe24" y="406.724405"/>
      </g>
     </g>
     <g id="line2d_33">
      <g>
       <use style="stroke:#000000;stroke-width:0.5;" x="234.515273" xlink:href="#m5f5a1a234e" y="26.204405"/>
      </g>
     </g>
    </g>
    <g id="xtick_14">
     <g id="line2d_34">
      <g>
       <use style="stroke:#000000;stroke-width:0.5;" x="258.352207" xlink:href="#m20e40ffe24" y="406.724405"/>
      </g>
     </g>
     <g id="line2d_35">
      <g>
       <use style="stroke:#000000;stroke-width:0.5;" x="258.352207" xlink:href="#m5f5a1a234e" y="26.204405"/>
      </g>
     </g>
    </g>
    <g id="xtick_15">
     <g id="line2d_36">
      <g>
       <use style="stroke:#000000;stroke-width:0.5;" x="282.189142" xlink:href="#m20e40ffe24" y="406.724405"/>
      </g>
     </g>
     <g id="line2d_37">
      <g>
       <use style="stroke:#000000;stroke-width:0.5;" x="282.189142" xlink:href="#m5f5a1a234e" y="26.204405"/>
      </g>
     </g>
    </g>
    <g id="xtick_16">
     <g id="line2d_38">
      <g>
       <use style="stroke:#000000;stroke-width:0.5;" x="306.026076" xlink:href="#m20e40ffe24" y="406.724405"/>
      </g>
     </g>
     <g id="line2d_39">
      <g>
       <use style="stroke:#000000;stroke-width:0.5;" x="306.026076" xlink:href="#m5f5a1a234e" y="26.204405"/>
      </g>
     </g>
    </g>
    <g id="xtick_17">
     <g id="line2d_40">
      <g>
       <use style="stroke:#000000;stroke-width:0.5;" x="353.699944" xlink:href="#m20e40ffe24" y="406.724405"/>
      </g>
     </g>
     <g id="line2d_41">
      <g>
       <use style="stroke:#000000;stroke-width:0.5;" x="353.699944" xlink:href="#m5f5a1a234e" y="26.204405"/>
      </g>
     </g>
    </g>
    <g id="xtick_18">
     <g id="line2d_42">
      <g>
       <use style="stroke:#000000;stroke-width:0.5;" x="377.536878" xlink:href="#m20e40ffe24" y="406.724405"/>
      </g>
     </g>
     <g id="line2d_43">
      <g>
       <use style="stroke:#000000;stroke-width:0.5;" x="377.536878" xlink:href="#m5f5a1a234e" y="26.204405"/>
      </g>
     </g>
    </g>
    <g id="xtick_19">
     <g id="line2d_44">
      <g>
       <use style="stroke:#000000;stroke-width:0.5;" x="401.373813" xlink:href="#m20e40ffe24" y="406.724405"/>
      </g>
     </g>
     <g id="line2d_45">
      <g>
       <use style="stroke:#000000;stroke-width:0.5;" x="401.373813" xlink:href="#m5f5a1a234e" y="26.204405"/>
      </g>
     </g>
    </g>
    <g id="xtick_20">
     <g id="line2d_46">
      <g>
       <use style="stroke:#000000;stroke-width:0.5;" x="425.210747" xlink:href="#m20e40ffe24" y="406.724405"/>
      </g>
     </g>
     <g id="line2d_47">
      <g>
       <use style="stroke:#000000;stroke-width:0.5;" x="425.210747" xlink:href="#m5f5a1a234e" y="26.204405"/>
      </g>
     </g>
    </g>
    <g id="xtick_21">
     <g id="line2d_48">
      <g>
       <use style="stroke:#000000;stroke-width:0.5;" x="472.884615" xlink:href="#m20e40ffe24" y="406.724405"/>
      </g>
     </g>
     <g id="line2d_49">
      <g>
       <use style="stroke:#000000;stroke-width:0.5;" x="472.884615" xlink:href="#m5f5a1a234e" y="26.204405"/>
      </g>
     </g>
    </g>
    <g id="xtick_22">
     <g id="line2d_50">
      <g>
       <use style="stroke:#000000;stroke-width:0.5;" x="496.72155" xlink:href="#m20e40ffe24" y="406.724405"/>
      </g>
     </g>
     <g id="line2d_51">
      <g>
       <use style="stroke:#000000;stroke-width:0.5;" x="496.72155" xlink:href="#m5f5a1a234e" y="26.204405"/>
      </g>
     </g>
    </g>
    <g id="xtick_23">
     <g id="line2d_52">
      <g>
       <use style="stroke:#000000;stroke-width:0.5;" x="520.558484" xlink:href="#m20e40ffe24" y="406.724405"/>
      </g>
     </g>
     <g id="line2d_53">
      <g>
       <use style="stroke:#000000;stroke-width:0.5;" x="520.558484" xlink:href="#m5f5a1a234e" y="26.204405"/>
      </g>
     </g>
    </g>
    <g id="xtick_24">
     <g id="line2d_54">
      <g>
       <use style="stroke:#000000;stroke-width:0.5;" x="544.395418" xlink:href="#m20e40ffe24" y="406.724405"/>
      </g>
     </g>
     <g id="line2d_55">
      <g>
       <use style="stroke:#000000;stroke-width:0.5;" x="544.395418" xlink:href="#m5f5a1a234e" y="26.204405"/>
      </g>
     </g>
    </g>
    <g id="xtick_25">
     <g id="line2d_56">
      <g>
       <use style="stroke:#000000;stroke-width:0.5;" x="592.069287" xlink:href="#m20e40ffe24" y="406.724405"/>
      </g>
     </g>
     <g id="line2d_57">
      <g>
       <use style="stroke:#000000;stroke-width:0.5;" x="592.069287" xlink:href="#m5f5a1a234e" y="26.204405"/>
      </g>
     </g>
    </g>
    <g id="xtick_26">
     <g id="line2d_58">
      <g>
       <use style="stroke:#000000;stroke-width:0.5;" x="615.906221" xlink:href="#m20e40ffe24" y="406.724405"/>
      </g>
     </g>
     <g id="line2d_59">
      <g>
       <use style="stroke:#000000;stroke-width:0.5;" x="615.906221" xlink:href="#m5f5a1a234e" y="26.204405"/>
      </g>
     </g>
    </g>
    <g id="xtick_27">
     <g id="line2d_60">
      <g>
       <use style="stroke:#000000;stroke-width:0.5;" x="639.743155" xlink:href="#m20e40ffe24" y="406.724405"/>
      </g>
     </g>
     <g id="line2d_61">
      <g>
       <use style="stroke:#000000;stroke-width:0.5;" x="639.743155" xlink:href="#m5f5a1a234e" y="26.204405"/>
      </g>
     </g>
    </g>
    <g id="xtick_28">
     <g id="line2d_62">
      <g>
       <use style="stroke:#000000;stroke-width:0.5;" x="663.580089" xlink:href="#m20e40ffe24" y="406.724405"/>
      </g>
     </g>
     <g id="line2d_63">
      <g>
       <use style="stroke:#000000;stroke-width:0.5;" x="663.580089" xlink:href="#m5f5a1a234e" y="26.204405"/>
      </g>
     </g>
    </g>
    <g id="xtick_29">
     <g id="line2d_64">
      <g>
       <use style="stroke:#000000;stroke-width:0.5;" x="711.253958" xlink:href="#m20e40ffe24" y="406.724405"/>
      </g>
     </g>
     <g id="line2d_65">
      <g>
       <use style="stroke:#000000;stroke-width:0.5;" x="711.253958" xlink:href="#m5f5a1a234e" y="26.204405"/>
      </g>
     </g>
    </g>
    <g id="xtick_30">
     <g id="line2d_66">
      <g>
       <use style="stroke:#000000;stroke-width:0.5;" x="735.090892" xlink:href="#m20e40ffe24" y="406.724405"/>
      </g>
     </g>
     <g id="line2d_67">
      <g>
       <use style="stroke:#000000;stroke-width:0.5;" x="735.090892" xlink:href="#m5f5a1a234e" y="26.204405"/>
      </g>
     </g>
    </g>
    <g id="xtick_31">
     <g id="line2d_68">
      <g>
       <use style="stroke:#000000;stroke-width:0.5;" x="758.927826" xlink:href="#m20e40ffe24" y="406.724405"/>
      </g>
     </g>
     <g id="line2d_69">
      <g>
       <use style="stroke:#000000;stroke-width:0.5;" x="758.927826" xlink:href="#m5f5a1a234e" y="26.204405"/>
      </g>
     </g>
    </g>
    <g id="xtick_32">
     <g id="line2d_70">
      <g>
       <use style="stroke:#000000;stroke-width:0.5;" x="782.76476" xlink:href="#m20e40ffe24" y="406.724405"/>
      </g>
     </g>
     <g id="line2d_71">
      <g>
       <use style="stroke:#000000;stroke-width:0.5;" x="782.76476" xlink:href="#m5f5a1a234e" y="26.204405"/>
      </g>
     </g>
    </g>
    <g id="xtick_33">
     <g id="line2d_72">
      <g>
       <use style="stroke:#000000;stroke-width:0.5;" x="830.438629" xlink:href="#m20e40ffe24" y="406.724405"/>
      </g>
     </g>
     <g id="line2d_73">
      <g>
       <use style="stroke:#000000;stroke-width:0.5;" x="830.438629" xlink:href="#m5f5a1a234e" y="26.204405"/>
      </g>
     </g>
    </g>
    <g id="xtick_34">
     <g id="line2d_74">
      <g>
       <use style="stroke:#000000;stroke-width:0.5;" x="854.275563" xlink:href="#m20e40ffe24" y="406.724405"/>
      </g>
     </g>
     <g id="line2d_75">
      <g>
       <use style="stroke:#000000;stroke-width:0.5;" x="854.275563" xlink:href="#m5f5a1a234e" y="26.204405"/>
      </g>
     </g>
    </g>
    <g id="xtick_35">
     <g id="line2d_76">
      <g>
       <use style="stroke:#000000;stroke-width:0.5;" x="878.112497" xlink:href="#m20e40ffe24" y="406.724405"/>
      </g>
     </g>
     <g id="line2d_77">
      <g>
       <use style="stroke:#000000;stroke-width:0.5;" x="878.112497" xlink:href="#m5f5a1a234e" y="26.204405"/>
      </g>
     </g>
    </g>
    <g id="text_8">
     <!-- time(sec) -->
     <g transform="translate(435.459109 446.863058)scale(0.2 -0.2)">
      <defs>
       <path d="M 15.09375 40 
L 29.09375 40 
L 29.09375 42.578125 
L 15.09375 42.578125 
L 15.09375 61 
L 13.296875 61 
C 13.09375 50.703125 9.59375 41.6875 1.09375 41.6875 
L 1.09375 40 
L 9.796875 40 
L 9.796875 12.046875 
C 9.796875 10.15625 9.796875 -1 21.40625 -1 
C 27.296875 -1 30.703125 4.78125 30.703125 12.140625 
L 30.703125 17.8125 
L 28.90625 17.8125 
L 28.90625 12.234375 
C 28.90625 5.375 26.203125 0.796875 22 0.796875 
C 19.09375 0.796875 15.09375 2.78125 15.09375 11.84375 
z
" id="CMR17-116"/>
       <path d="M 15.5 61.078125 
C 15.5 63.265625 13.703125 65.15625 11.40625 65.15625 
C 9.203125 65.15625 7.296875 63.375 7.296875 61.078125 
C 7.296875 58.890625 9.09375 57 11.40625 57 
C 13.59375 57 15.5 58.796875 15.5 61.078125 
z
M 3.796875 42.28125 
L 3.796875 39.703125 
C 9.40625 39.703125 10.203125 39.09375 10.203125 34.328125 
L 10.203125 6.671875 
C 10.203125 2.875 9.796875 2.390625 3.40625 2.390625 
L 3.40625 -0.203125 
C 5.796875 0 10.09375 0 12.59375 0 
C 15 0 19.09375 0 21.40625 -0.203125 
L 21.40625 2.390625 
C 15.5 2.390625 15.296875 2.984375 15.296875 6.5625 
L 15.296875 43.375 
z
" id="CMR17-105"/>
       <path d="M 67.59375 30.203125 
C 67.59375 35.1875 66.703125 43.59375 54.796875 43.59375 
C 48 43.59375 43.296875 39 41.5 33.609375 
L 41.40625 33.609375 
C 40.203125 41.8125 34.296875 43.59375 28.703125 43.59375 
C 20.796875 43.59375 16.703125 37.5 15.203125 33.5 
L 15.09375 33.5 
L 15.09375 43.59375 
L 3.296875 42.5 
L 3.296875 39.90625 
C 9.203125 39.90625 10.09375 39.296875 10.09375 34.5 
L 10.09375 6.6875 
C 10.09375 2.875 9.703125 2.390625 3.296875 2.390625 
L 3.296875 -0.203125 
C 5.703125 0 10.09375 0 12.703125 0 
C 15.296875 0 19.796875 0 22.203125 -0.203125 
L 22.203125 2.390625 
C 15.796875 2.390625 15.40625 2.78125 15.40625 6.6875 
L 15.40625 25.90625 
C 15.40625 35.109375 21 42 28 42 
C 35.40625 42 36.203125 35.40625 36.203125 30.59375 
L 36.203125 6.6875 
C 36.203125 2.875 35.796875 2.390625 29.40625 2.390625 
L 29.40625 -0.203125 
C 31.796875 0 36.203125 0 38.796875 0 
C 41.40625 0 45.90625 0 48.296875 -0.203125 
L 48.296875 2.390625 
C 41.90625 2.390625 41.5 2.78125 41.5 6.6875 
L 41.5 25.90625 
C 41.5 35.109375 47.09375 42 54.09375 42 
C 61.5 42 62.296875 35.40625 62.296875 30.59375 
L 62.296875 6.6875 
C 62.296875 2.875 61.90625 2.390625 55.5 2.390625 
L 55.5 -0.203125 
C 57.90625 0 62.296875 0 64.90625 0 
C 67.5 0 72 0 74.40625 -0.203125 
L 74.40625 2.390625 
C 68 2.390625 67.59375 2.78125 67.59375 6.6875 
z
" id="CMR17-109"/>
       <path d="M 38.09375 23 
C 38.5 23.40625 38.5 23.609375 38.5 24.625 
C 38.5 34.96875 33.09375 44 21.703125 44 
C 11.09375 44 2.703125 33.890625 2.703125 21.609375 
C 2.703125 8.609375 12.203125 -1 22.796875 -1 
C 34 -1 38.40625 9.484375 38.40625 11.5625 
C 38.40625 12.25 37.796875 12.25 37.59375 12.25 
C 36.90625 12.25 36.796875 12.046875 36.40625 10.875 
C 34.203125 4.140625 28.703125 0.796875 23.5 0.796875 
C 19.203125 0.796875 14.90625 3.171875 12.203125 7.5 
C 9.09375 12.546875 9.09375 18.375 9.09375 23 
z
M 9.203125 24.5 
C 9.90625 39.140625 17.59375 42.40625 21.59375 42.40625 
C 28.40625 42.40625 33 35.890625 33.09375 24.5 
z
" id="CMR17-101"/>
       <path d="M 30.59375 -24.390625 
C 30.59375 -24.296875 30.59375 -24.09375 30.296875 -23.796875 
C 25.703125 -19.125 13.40625 -6.359375 13.40625 24.703125 
C 13.40625 55.765625 25.5 68.421875 30.40625 73.390625 
C 30.40625 73.5 30.59375 73.703125 30.59375 74 
C 30.59375 74.296875 30.296875 74.5 29.90625 74.5 
C 28.796875 74.5 20.296875 67.125 15.40625 56.15625 
C 10.40625 45.109375 9 34.359375 9 24.8125 
C 9 17.625 9.703125 5.484375 15.703125 -7.359375 
C 20.5 -17.734375 28.703125 -25 29.90625 -25 
C 30.40625 -25 30.59375 -24.796875 30.59375 -24.390625 
z
" id="CMR17-40"/>
       <path d="M 30.90625 42.140625 
C 30.90625 43.953125 30.796875 44.046875 30.203125 44.046875 
C 29.796875 44.046875 29.703125 43.953125 28.5 42.453125 
C 28.203125 42.046875 27.296875 41.03125 27 40.640625 
C 23.796875 44.046875 19.296875 44.046875 17.59375 44.046875 
C 6.5 44.046875 2.5 38.234375 2.5 32.4375 
C 2.5 23.40625 12.703125 21.328125 15.59375 20.703125 
C 21.90625 19.421875 24.09375 19.015625 26.203125 17.203125 
C 27.5 16.015625 29.703125 13.8125 29.703125 10.21875 
C 29.703125 6 27.296875 0.59375 18.09375 0.59375 
C 9.40625 0.59375 6.296875 7.1875 4.5 15.953125 
C 4.203125 17.34375 4.203125 17.453125 3.40625 17.453125 
C 2.59375 17.453125 2.5 17.34375 2.5 15.359375 
L 2.5 0.984375 
C 2.5 -0.796875 2.59375 -0.90625 3.203125 -0.90625 
C 3.703125 -0.90625 3.796875 -0.796875 4.296875 0 
C 4.90625 0.890625 6.40625 3.296875 7 4.3125 
C 9 1.609375 12.5 -1 18.09375 -1 
C 28 -1 33.296875 4.421875 33.296875 12.25 
C 33.296875 17.375 30.59375 20.078125 29.296875 21.28125 
C 26.296875 24.390625 22.796875 25.09375 18.59375 25.890625 
C 13.09375 27.109375 6.09375 28.515625 6.09375 34.640625 
C 6.09375 37.234375 7.5 42.765625 17.59375 42.765625 
C 28.296875 42.765625 28.90625 32.71875 29.09375 29.5 
C 29.203125 29 29.703125 28.890625 30 28.890625 
C 30.90625 28.890625 30.90625 29.203125 30.90625 30.90625 
z
" id="CMR17-115"/>
       <path d="M 34.90625 35 
C 33 35 30.203125 35 30.203125 31.515625 
C 30.203125 28.71875 32.5 27.921875 33.796875 27.921875 
C 34.5 27.921875 37.40625 28.234375 37.40625 31.625 
C 37.40625 38.546875 30.59375 43.796875 22.90625 43.796875 
C 12.296875 43.796875 3.296875 34.03125 3.296875 21.296875 
C 3.296875 8.0625 12.703125 -1 22.90625 -1 
C 35.296875 -1 38.40625 10.578125 38.40625 11.6875 
C 38.40625 12.09375 38.296875 12.390625 37.59375 12.390625 
C 36.90625 12.390625 36.796875 12.296875 36.40625 10.984375 
C 33.796875 2.8125 28.09375 0.796875 23.796875 0.796875 
C 17.40625 0.796875 9.703125 6.671875 9.703125 21.390625 
C 9.703125 36.53125 17.09375 42 23 42 
C 26.90625 42 32.703125 40.203125 34.90625 35 
z
" id="CMR17-99"/>
       <path d="M 26.296875 24.703125 
C 26.296875 31.875 25.59375 44.015625 19.59375 56.859375 
C 14.796875 67.234375 6.59375 74.5 5.40625 74.5 
C 5.09375 74.5 4.703125 74.390625 4.703125 73.890625 
C 4.703125 73.703125 4.796875 73.59375 4.90625 73.390625 
C 9.703125 68.40625 21.90625 55.75 21.90625 24.75 
C 21.90625 -6.359375 9.796875 -19.015625 4.90625 -24.015625 
C 4.796875 -24.203125 4.703125 -24.3125 4.703125 -24.5 
C 4.703125 -25 5.09375 -25 5.40625 -25 
C 6.5 -25 15 -17.625 19.90625 -6.65625 
C 24.90625 4.390625 26.296875 15.140625 26.296875 24.703125 
z
" id="CMR17-41"/>
      </defs>
      <use transform="scale(0.996264)" xlink:href="#CMR17-116"/>
      <use transform="translate(35.280768 0)scale(0.996264)" xlink:href="#CMR17-105"/>
      <use transform="translate(60.151826 0)scale(0.996264)" xlink:href="#CMR17-109"/>
      <use transform="translate(137.071416 0)scale(0.996264)" xlink:href="#CMR17-101"/>
      <use transform="translate(177.557077 0)scale(0.996264)" xlink:href="#CMR17-40"/>
      <use transform="translate(212.837844 0)scale(0.996264)" xlink:href="#CMR17-115"/>
      <use transform="translate(248.639182 0)scale(0.996264)" xlink:href="#CMR17-101"/>
      <use transform="translate(289.124843 0)scale(0.996264)" xlink:href="#CMR17-99"/>
      <use transform="translate(329.610503 0)scale(0.996264)" xlink:href="#CMR17-41"/>
     </g>
    </g>
   </g>
   <g id="matplotlib.axis_2">
    <g id="ytick_1">
     <g id="line2d_78">
      <path clip-path="url(#p7ed9bfa38f)" d="M 53.448213 390.881735 
L 890.448213 390.881735 
" style="fill:none;stroke:#b0b0b0;stroke-linecap:square;stroke-width:0.5;"/>
     </g>
     <g id="line2d_79">
      <defs>
       <path d="M 0 0 
L 3 0 
" id="me9028b98e1" style="stroke:#000000;stroke-width:0.5;"/>
      </defs>
      <g>
       <use style="stroke:#000000;stroke-width:0.5;" x="53.448213" xlink:href="#me9028b98e1" y="390.881735"/>
      </g>
     </g>
     <g id="line2d_80">
      <defs>
       <path d="M 0 0 
L -3 0 
" id="maed3304d73" style="stroke:#000000;stroke-width:0.5;"/>
      </defs>
      <g>
       <use style="stroke:#000000;stroke-width:0.5;" x="890.448213" xlink:href="#maed3304d73" y="390.881735"/>
      </g>
     </g>
     <g id="text_9">
      <!-- $\mathdefault{−8}$ -->
      <g transform="translate(25.31263 397.800234)scale(0.2 -0.2)">
       <defs>
        <path d="M 65.90625 23 
C 67.59375 23 69.40625 23 69.40625 25 
C 69.40625 27 67.59375 27 65.90625 27 
L 11.796875 27 
C 10.09375 27 8.296875 27 8.296875 25 
C 8.296875 23 10.09375 23 11.796875 23 
z
" id="CMSY10-0"/>
        <path d="M 27.203125 35.375 
C 33.5 38.546875 39.90625 43.328125 39.90625 50.984375 
C 39.90625 60.015625 31.09375 65.296875 23 65.296875 
C 13.90625 65.296875 5.90625 58.734375 5.90625 49.6875 
C 5.90625 47.203125 6.5 42.921875 10.40625 39.140625 
C 11.40625 38.15625 15.59375 35.171875 18.296875 33.28125 
C 13.796875 30.984375 3.296875 25.53125 3.296875 14.59375 
C 3.296875 4.359375 13.09375 -2 22.796875 -2 
C 33.5 -2 42.5 5.65625 42.5 15.78125 
C 42.5 24.84375 36.40625 29.015625 32.40625 31.703125 
z
M 14.09375 44.09375 
C 13.296875 44.59375 9.296875 47.671875 9.296875 52.359375 
C 9.296875 58.421875 15.59375 63 22.796875 63 
C 30.703125 63 36.5 57.4375 36.5 50.96875 
C 36.5 41.703125 26.09375 36.421875 25.59375 36.421875 
C 25.5 36.421875 25.40625 36.421875 24.59375 37.03125 
z
M 32.5 23.734375 
C 34 22.640625 38.796875 19.375 38.796875 13.296875 
C 38.796875 5.953125 31.40625 0.390625 23 0.390625 
C 13.90625 0.390625 7 6.84375 7 14.6875 
C 7 22.546875 13.09375 29.09375 20 32.1875 
z
" id="CMR17-56"/>
       </defs>
       <use transform="scale(0.996264)" xlink:href="#CMSY10-0"/>
       <use transform="translate(77.487468 0)scale(0.996264)" xlink:href="#CMR17-56"/>
      </g>
     </g>
    </g>
    <g id="ytick_2">
     <g id="line2d_81">
      <path clip-path="url(#p7ed9bfa38f)" d="M 53.448213 345.205023 
L 890.448213 345.205023 
" style="fill:none;stroke:#b0b0b0;stroke-linecap:square;stroke-width:0.5;"/>
     </g>
     <g id="line2d_82">
      <g>
       <use style="stroke:#000000;stroke-width:0.5;" x="53.448213" xlink:href="#me9028b98e1" y="345.205023"/>
      </g>
     </g>
     <g id="line2d_83">
      <g>
       <use style="stroke:#000000;stroke-width:0.5;" x="890.448213" xlink:href="#maed3304d73" y="345.205023"/>
      </g>
     </g>
     <g id="text_10">
      <!-- $\mathdefault{−6}$ -->
      <g transform="translate(25.31263 352.123522)scale(0.2 -0.2)">
       <defs>
        <path d="M 10.59375 34 
C 10.59375 57.65625 21.796875 63 28.296875 63 
C 30.40625 63 35.5 62.640625 37.5 59 
C 35.90625 59 32.90625 59 32.90625 55.515625 
C 32.90625 52.828125 35.09375 51.921875 36.5 51.921875 
C 37.40625 51.921875 40.09375 52.3125 40.09375 55.625 
C 40.09375 61.78125 35.09375 65.296875 28.203125 65.296875 
C 16.296875 65.296875 3.796875 52.96875 3.796875 31 
C 3.796875 3.953125 15.09375 -2 23.09375 -2 
C 32.796875 -2 42 6.671875 42 20.046875 
C 42 32.515625 33.90625 41.59375 23.703125 41.59375 
C 17.59375 41.59375 13.09375 37.609375 10.59375 30.625 
z
M 23.09375 0.390625 
C 10.796875 0.390625 10.796875 18.75 10.796875 22.4375 
C 10.796875 29.625 14.203125 40 23.5 40 
C 25.203125 40 30.09375 40 33.40625 33.125 
C 35.203125 29.21875 35.203125 25.140625 35.203125 20.140625 
C 35.203125 14.75 35.203125 10.78125 33.09375 6.78125 
C 30.90625 2.671875 27.703125 0.390625 23.09375 0.390625 
z
" id="CMR17-54"/>
       </defs>
       <use transform="scale(0.996264)" xlink:href="#CMSY10-0"/>
       <use transform="translate(77.487468 0)scale(0.996264)" xlink:href="#CMR17-54"/>
      </g>
     </g>
    </g>
    <g id="ytick_3">
     <g id="line2d_84">
      <path clip-path="url(#p7ed9bfa38f)" d="M 53.448213 299.528311 
L 890.448213 299.528311 
" style="fill:none;stroke:#b0b0b0;stroke-linecap:square;stroke-width:0.5;"/>
     </g>
     <g id="line2d_85">
      <g>
       <use style="stroke:#000000;stroke-width:0.5;" x="53.448213" xlink:href="#me9028b98e1" y="299.528311"/>
      </g>
     </g>
     <g id="line2d_86">
      <g>
       <use style="stroke:#000000;stroke-width:0.5;" x="890.448213" xlink:href="#maed3304d73" y="299.528311"/>
      </g>
     </g>
     <g id="text_11">
      <!-- $\mathdefault{−4}$ -->
      <g transform="translate(25.31263 306.446809)scale(0.2 -0.2)">
       <defs>
        <path d="M 33.59375 64.40625 
C 33.59375 66.5 33.5 66.5 31.703125 66.5 
L 2 19.59375 
L 2 17 
L 27.796875 17 
L 27.796875 7.140625 
C 27.796875 3.5 27.59375 2.5 20.59375 2.5 
L 18.703125 2.5 
L 18.703125 0 
C 21.90625 0 27.296875 0 30.703125 0 
C 34.09375 0 39.5 0 42.703125 0 
L 42.703125 2.5 
L 40.796875 2.5 
C 33.796875 2.5 33.59375 3.5 33.59375 7.140625 
L 33.59375 17 
L 43.796875 17 
L 43.796875 19.59375 
L 33.59375 19.59375 
z
M 28.09375 57.859375 
L 28.09375 19.59375 
L 4 19.59375 
z
" id="CMR17-52"/>
       </defs>
       <use transform="scale(0.996264)" xlink:href="#CMSY10-0"/>
       <use transform="translate(77.487468 0)scale(0.996264)" xlink:href="#CMR17-52"/>
      </g>
     </g>
    </g>
    <g id="ytick_4">
     <g id="line2d_87">
      <path clip-path="url(#p7ed9bfa38f)" d="M 53.448213 253.851599 
L 890.448213 253.851599 
" style="fill:none;stroke:#b0b0b0;stroke-linecap:square;stroke-width:0.5;"/>
     </g>
     <g id="line2d_88">
      <g>
       <use style="stroke:#000000;stroke-width:0.5;" x="53.448213" xlink:href="#me9028b98e1" y="253.851599"/>
      </g>
     </g>
     <g id="line2d_89">
      <g>
       <use style="stroke:#000000;stroke-width:0.5;" x="890.448213" xlink:href="#maed3304d73" y="253.851599"/>
      </g>
     </g>
     <g id="text_12">
      <!-- $\mathdefault{−2}$ -->
      <g transform="translate(25.31263 260.770097)scale(0.2 -0.2)">
       <use transform="scale(0.996264)" xlink:href="#CMSY10-0"/>
       <use transform="translate(77.487468 0)scale(0.996264)" xlink:href="#CMR17-50"/>
      </g>
     </g>
    </g>
    <g id="ytick_5">
     <g id="line2d_90">
      <path clip-path="url(#p7ed9bfa38f)" d="M 53.448213 208.174887 
L 890.448213 208.174887 
" style="fill:none;stroke:#b0b0b0;stroke-linecap:square;stroke-width:0.5;"/>
     </g>
     <g id="line2d_91">
      <g>
       <use style="stroke:#000000;stroke-width:0.5;" x="53.448213" xlink:href="#me9028b98e1" y="208.174887"/>
      </g>
     </g>
     <g id="line2d_92">
      <g>
       <use style="stroke:#000000;stroke-width:0.5;" x="890.448213" xlink:href="#maed3304d73" y="208.174887"/>
      </g>
     </g>
     <g id="text_13">
      <!-- $\mathdefault{0}$ -->
      <g transform="translate(40.810118 215.093385)scale(0.2 -0.2)">
       <use transform="scale(0.996264)" xlink:href="#CMR17-48"/>
      </g>
     </g>
    </g>
    <g id="ytick_6">
     <g id="line2d_93">
      <path clip-path="url(#p7ed9bfa38f)" d="M 53.448213 162.498175 
L 890.448213 162.498175 
" style="fill:none;stroke:#b0b0b0;stroke-linecap:square;stroke-width:0.5;"/>
     </g>
     <g id="line2d_94">
      <g>
       <use style="stroke:#000000;stroke-width:0.5;" x="53.448213" xlink:href="#me9028b98e1" y="162.498175"/>
      </g>
     </g>
     <g id="line2d_95">
      <g>
       <use style="stroke:#000000;stroke-width:0.5;" x="890.448213" xlink:href="#maed3304d73" y="162.498175"/>
      </g>
     </g>
     <g id="text_14">
      <!-- $\mathdefault{2}$ -->
      <g transform="translate(40.810118 169.416673)scale(0.2 -0.2)">
       <use transform="scale(0.996264)" xlink:href="#CMR17-50"/>
      </g>
     </g>
    </g>
    <g id="ytick_7">
     <g id="line2d_96">
      <path clip-path="url(#p7ed9bfa38f)" d="M 53.448213 116.821463 
L 890.448213 116.821463 
" style="fill:none;stroke:#b0b0b0;stroke-linecap:square;stroke-width:0.5;"/>
     </g>
     <g id="line2d_97">
      <g>
       <use style="stroke:#000000;stroke-width:0.5;" x="53.448213" xlink:href="#me9028b98e1" y="116.821463"/>
      </g>
     </g>
     <g id="line2d_98">
      <g>
       <use style="stroke:#000000;stroke-width:0.5;" x="890.448213" xlink:href="#maed3304d73" y="116.821463"/>
      </g>
     </g>
     <g id="text_15">
      <!-- $\mathdefault{4}$ -->
      <g transform="translate(40.810118 123.739961)scale(0.2 -0.2)">
       <use transform="scale(0.996264)" xlink:href="#CMR17-52"/>
      </g>
     </g>
    </g>
    <g id="ytick_8">
     <g id="line2d_99">
      <path clip-path="url(#p7ed9bfa38f)" d="M 53.448213 71.144751 
L 890.448213 71.144751 
" style="fill:none;stroke:#b0b0b0;stroke-linecap:square;stroke-width:0.5;"/>
     </g>
     <g id="line2d_100">
      <g>
       <use style="stroke:#000000;stroke-width:0.5;" x="53.448213" xlink:href="#me9028b98e1" y="71.144751"/>
      </g>
     </g>
     <g id="line2d_101">
      <g>
       <use style="stroke:#000000;stroke-width:0.5;" x="890.448213" xlink:href="#maed3304d73" y="71.144751"/>
      </g>
     </g>
     <g id="text_16">
      <!-- $\mathdefault{6}$ -->
      <g transform="translate(40.810118 78.063249)scale(0.2 -0.2)">
       <use transform="scale(0.996264)" xlink:href="#CMR17-54"/>
      </g>
     </g>
    </g>
    <g id="ytick_9">
     <g id="line2d_102">
      <defs>
       <path d="M 0 0 
L 1.5 0 
" id="m878543681a" style="stroke:#000000;stroke-width:0.5;"/>
      </defs>
      <g>
       <use style="stroke:#000000;stroke-width:0.5;" x="53.448213" xlink:href="#m878543681a" y="402.300913"/>
      </g>
     </g>
     <g id="line2d_103">
      <defs>
       <path d="M 0 0 
L -1.5 0 
" id="m98f967683c" style="stroke:#000000;stroke-width:0.5;"/>
      </defs>
      <g>
       <use style="stroke:#000000;stroke-width:0.5;" x="890.448213" xlink:href="#m98f967683c" y="402.300913"/>
      </g>
     </g>
    </g>
    <g id="ytick_10">
     <g id="line2d_104">
      <g>
       <use style="stroke:#000000;stroke-width:0.5;" x="53.448213" xlink:href="#m878543681a" y="379.462557"/>
      </g>
     </g>
     <g id="line2d_105">
      <g>
       <use style="stroke:#000000;stroke-width:0.5;" x="890.448213" xlink:href="#m98f967683c" y="379.462557"/>
      </g>
     </g>
    </g>
    <g id="ytick_11">
     <g id="line2d_106">
      <g>
       <use style="stroke:#000000;stroke-width:0.5;" x="53.448213" xlink:href="#m878543681a" y="368.043379"/>
      </g>
     </g>
     <g id="line2d_107">
      <g>
       <use style="stroke:#000000;stroke-width:0.5;" x="890.448213" xlink:href="#m98f967683c" y="368.043379"/>
      </g>
     </g>
    </g>
    <g id="ytick_12">
     <g id="line2d_108">
      <g>
       <use style="stroke:#000000;stroke-width:0.5;" x="53.448213" xlink:href="#m878543681a" y="356.624201"/>
      </g>
     </g>
     <g id="line2d_109">
      <g>
       <use style="stroke:#000000;stroke-width:0.5;" x="890.448213" xlink:href="#m98f967683c" y="356.624201"/>
      </g>
     </g>
    </g>
    <g id="ytick_13">
     <g id="line2d_110">
      <g>
       <use style="stroke:#000000;stroke-width:0.5;" x="53.448213" xlink:href="#m878543681a" y="333.785845"/>
      </g>
     </g>
     <g id="line2d_111">
      <g>
       <use style="stroke:#000000;stroke-width:0.5;" x="890.448213" xlink:href="#m98f967683c" y="333.785845"/>
      </g>
     </g>
    </g>
    <g id="ytick_14">
     <g id="line2d_112">
      <g>
       <use style="stroke:#000000;stroke-width:0.5;" x="53.448213" xlink:href="#m878543681a" y="322.366667"/>
      </g>
     </g>
     <g id="line2d_113">
      <g>
       <use style="stroke:#000000;stroke-width:0.5;" x="890.448213" xlink:href="#m98f967683c" y="322.366667"/>
      </g>
     </g>
    </g>
    <g id="ytick_15">
     <g id="line2d_114">
      <g>
       <use style="stroke:#000000;stroke-width:0.5;" x="53.448213" xlink:href="#m878543681a" y="310.947489"/>
      </g>
     </g>
     <g id="line2d_115">
      <g>
       <use style="stroke:#000000;stroke-width:0.5;" x="890.448213" xlink:href="#m98f967683c" y="310.947489"/>
      </g>
     </g>
    </g>
    <g id="ytick_16">
     <g id="line2d_116">
      <g>
       <use style="stroke:#000000;stroke-width:0.5;" x="53.448213" xlink:href="#m878543681a" y="288.109133"/>
      </g>
     </g>
     <g id="line2d_117">
      <g>
       <use style="stroke:#000000;stroke-width:0.5;" x="890.448213" xlink:href="#m98f967683c" y="288.109133"/>
      </g>
     </g>
    </g>
    <g id="ytick_17">
     <g id="line2d_118">
      <g>
       <use style="stroke:#000000;stroke-width:0.5;" x="53.448213" xlink:href="#m878543681a" y="276.689955"/>
      </g>
     </g>
     <g id="line2d_119">
      <g>
       <use style="stroke:#000000;stroke-width:0.5;" x="890.448213" xlink:href="#m98f967683c" y="276.689955"/>
      </g>
     </g>
    </g>
    <g id="ytick_18">
     <g id="line2d_120">
      <g>
       <use style="stroke:#000000;stroke-width:0.5;" x="53.448213" xlink:href="#m878543681a" y="265.270777"/>
      </g>
     </g>
     <g id="line2d_121">
      <g>
       <use style="stroke:#000000;stroke-width:0.5;" x="890.448213" xlink:href="#m98f967683c" y="265.270777"/>
      </g>
     </g>
    </g>
    <g id="ytick_19">
     <g id="line2d_122">
      <g>
       <use style="stroke:#000000;stroke-width:0.5;" x="53.448213" xlink:href="#m878543681a" y="242.432421"/>
      </g>
     </g>
     <g id="line2d_123">
      <g>
       <use style="stroke:#000000;stroke-width:0.5;" x="890.448213" xlink:href="#m98f967683c" y="242.432421"/>
      </g>
     </g>
    </g>
    <g id="ytick_20">
     <g id="line2d_124">
      <g>
       <use style="stroke:#000000;stroke-width:0.5;" x="53.448213" xlink:href="#m878543681a" y="231.013243"/>
      </g>
     </g>
     <g id="line2d_125">
      <g>
       <use style="stroke:#000000;stroke-width:0.5;" x="890.448213" xlink:href="#m98f967683c" y="231.013243"/>
      </g>
     </g>
    </g>
    <g id="ytick_21">
     <g id="line2d_126">
      <g>
       <use style="stroke:#000000;stroke-width:0.5;" x="53.448213" xlink:href="#m878543681a" y="219.594065"/>
      </g>
     </g>
     <g id="line2d_127">
      <g>
       <use style="stroke:#000000;stroke-width:0.5;" x="890.448213" xlink:href="#m98f967683c" y="219.594065"/>
      </g>
     </g>
    </g>
    <g id="ytick_22">
     <g id="line2d_128">
      <g>
       <use style="stroke:#000000;stroke-width:0.5;" x="53.448213" xlink:href="#m878543681a" y="196.755709"/>
      </g>
     </g>
     <g id="line2d_129">
      <g>
       <use style="stroke:#000000;stroke-width:0.5;" x="890.448213" xlink:href="#m98f967683c" y="196.755709"/>
      </g>
     </g>
    </g>
    <g id="ytick_23">
     <g id="line2d_130">
      <g>
       <use style="stroke:#000000;stroke-width:0.5;" x="53.448213" xlink:href="#m878543681a" y="185.336531"/>
      </g>
     </g>
     <g id="line2d_131">
      <g>
       <use style="stroke:#000000;stroke-width:0.5;" x="890.448213" xlink:href="#m98f967683c" y="185.336531"/>
      </g>
     </g>
    </g>
    <g id="ytick_24">
     <g id="line2d_132">
      <g>
       <use style="stroke:#000000;stroke-width:0.5;" x="53.448213" xlink:href="#m878543681a" y="173.917353"/>
      </g>
     </g>
     <g id="line2d_133">
      <g>
       <use style="stroke:#000000;stroke-width:0.5;" x="890.448213" xlink:href="#m98f967683c" y="173.917353"/>
      </g>
     </g>
    </g>
    <g id="ytick_25">
     <g id="line2d_134">
      <g>
       <use style="stroke:#000000;stroke-width:0.5;" x="53.448213" xlink:href="#m878543681a" y="151.078997"/>
      </g>
     </g>
     <g id="line2d_135">
      <g>
       <use style="stroke:#000000;stroke-width:0.5;" x="890.448213" xlink:href="#m98f967683c" y="151.078997"/>
      </g>
     </g>
    </g>
    <g id="ytick_26">
     <g id="line2d_136">
      <g>
       <use style="stroke:#000000;stroke-width:0.5;" x="53.448213" xlink:href="#m878543681a" y="139.659819"/>
      </g>
     </g>
     <g id="line2d_137">
      <g>
       <use style="stroke:#000000;stroke-width:0.5;" x="890.448213" xlink:href="#m98f967683c" y="139.659819"/>
      </g>
     </g>
    </g>
    <g id="ytick_27">
     <g id="line2d_138">
      <g>
       <use style="stroke:#000000;stroke-width:0.5;" x="53.448213" xlink:href="#m878543681a" y="128.240641"/>
      </g>
     </g>
     <g id="line2d_139">
      <g>
       <use style="stroke:#000000;stroke-width:0.5;" x="890.448213" xlink:href="#m98f967683c" y="128.240641"/>
      </g>
     </g>
    </g>
    <g id="ytick_28">
     <g id="line2d_140">
      <g>
       <use style="stroke:#000000;stroke-width:0.5;" x="53.448213" xlink:href="#m878543681a" y="105.402285"/>
      </g>
     </g>
     <g id="line2d_141">
      <g>
       <use style="stroke:#000000;stroke-width:0.5;" x="890.448213" xlink:href="#m98f967683c" y="105.402285"/>
      </g>
     </g>
    </g>
    <g id="ytick_29">
     <g id="line2d_142">
      <g>
       <use style="stroke:#000000;stroke-width:0.5;" x="53.448213" xlink:href="#m878543681a" y="93.983107"/>
      </g>
     </g>
     <g id="line2d_143">
      <g>
       <use style="stroke:#000000;stroke-width:0.5;" x="890.448213" xlink:href="#m98f967683c" y="93.983107"/>
      </g>
     </g>
    </g>
    <g id="ytick_30">
     <g id="line2d_144">
      <g>
       <use style="stroke:#000000;stroke-width:0.5;" x="53.448213" xlink:href="#m878543681a" y="82.563929"/>
      </g>
     </g>
     <g id="line2d_145">
      <g>
       <use style="stroke:#000000;stroke-width:0.5;" x="890.448213" xlink:href="#m98f967683c" y="82.563929"/>
      </g>
     </g>
    </g>
    <g id="ytick_31">
     <g id="line2d_146">
      <g>
       <use style="stroke:#000000;stroke-width:0.5;" x="53.448213" xlink:href="#m878543681a" y="59.725573"/>
      </g>
     </g>
     <g id="line2d_147">
      <g>
       <use style="stroke:#000000;stroke-width:0.5;" x="890.448213" xlink:href="#m98f967683c" y="59.725573"/>
      </g>
     </g>
    </g>
    <g id="ytick_32">
     <g id="line2d_148">
      <g>
       <use style="stroke:#000000;stroke-width:0.5;" x="53.448213" xlink:href="#m878543681a" y="48.306395"/>
      </g>
     </g>
     <g id="line2d_149">
      <g>
       <use style="stroke:#000000;stroke-width:0.5;" x="890.448213" xlink:href="#m98f967683c" y="48.306395"/>
      </g>
     </g>
    </g>
    <g id="ytick_33">
     <g id="line2d_150">
      <g>
       <use style="stroke:#000000;stroke-width:0.5;" x="53.448213" xlink:href="#m878543681a" y="36.887217"/>
      </g>
     </g>
     <g id="line2d_151">
      <g>
       <use style="stroke:#000000;stroke-width:0.5;" x="890.448213" xlink:href="#m98f967683c" y="36.887217"/>
      </g>
     </g>
    </g>
    <g id="text_17">
     <!-- strain -->
     <g transform="translate(17.436997 239.246374)rotate(-90)scale(0.2 -0.2)">
      <defs>
       <path d="M 15 23.390625 
C 15 33 19.09375 42 26.59375 42 
C 27.296875 42 28 41.90625 28.703125 41.59375 
C 28.703125 41.59375 26.5 40.890625 26.5 38.3125 
C 26.5 35.90625 28.40625 34.90625 29.90625 34.90625 
C 31.09375 34.90625 33.296875 35.609375 33.296875 38.40625 
C 33.296875 41.609375 30.09375 43.59375 26.703125 43.59375 
C 19.09375 43.59375 15.796875 36.203125 14.796875 32.703125 
L 14.703125 32.703125 
L 14.703125 43.59375 
L 3.09375 42.5 
L 3.09375 39.90625 
C 9 39.90625 9.90625 39.296875 9.90625 34.5 
L 9.90625 6.6875 
C 9.90625 2.875 9.5 2.390625 3.09375 2.390625 
L 3.09375 -0.203125 
C 5.5 0 10.09375 0 12.703125 0 
C 15.59375 0 20.703125 0 23.40625 -0.203125 
L 23.40625 2.390625 
C 16.203125 2.390625 15 2.390625 15 6.875 
z
" id="CMR17-114"/>
       <path d="M 36 25.828125 
C 36 32.375 36 35.84375 31.796875 39.734375 
C 28.09375 43 23.796875 44 20.40625 44 
C 12.5 44 6.796875 37.609375 6.796875 30.796875 
C 6.796875 27 9.796875 27 10.40625 27 
C 11.703125 27 14 27.78125 14 30.53125 
C 14 33 12.09375 34.078125 10.40625 34.078125 
C 10 34.078125 9.5 33.96875 9.203125 33.875 
C 11.296875 40.5 16.703125 42.40625 20.203125 42.40625 
C 25.203125 42.40625 30.703125 37.953125 30.703125 29.453125 
L 30.703125 25 
C 24.796875 25 17.703125 24.203125 12.09375 21.203125 
C 5.796875 17.703125 4 12.703125 4 8.90625 
C 4 1.203125 13 -1 18.296875 -1 
C 23.796875 -1 28.90625 2.171875 31.09375 7.984375 
C 31.296875 3.640625 34.09375 -0.28125 38.5 -0.28125 
C 40.59375 -0.28125 45.90625 1.09375 45.90625 8.859375 
L 45.90625 14.375 
L 44.09375 14.375 
L 44.09375 8.78125 
C 44.09375 2.78125 41.40625 2 40.09375 2 
C 36 2 36 7.15625 36 11.53125 
z
M 30.703125 13.59375 
C 30.703125 4.953125 24.5 0.59375 19 0.59375 
C 14 0.59375 10.09375 4.296875 10.09375 8.90625 
C 10.09375 11.890625 11.40625 17.1875 17.203125 20.390625 
C 22 23.09375 27.5 23.5 30.703125 23.5 
z
" id="CMR17-97"/>
       <path d="M 41.5 30.203125 
C 41.5 35.296875 40.5 43.59375 28.703125 43.59375 
C 20.796875 43.59375 16.703125 37.5 15.203125 33.5 
L 15.09375 33.5 
L 15.09375 43.59375 
L 3.296875 42.5 
L 3.296875 39.90625 
C 9.203125 39.90625 10.09375 39.296875 10.09375 34.5 
L 10.09375 6.6875 
C 10.09375 2.875 9.703125 2.390625 3.296875 2.390625 
L 3.296875 -0.203125 
C 5.703125 0 10.09375 0 12.703125 0 
C 15.296875 0 19.796875 0 22.203125 -0.203125 
L 22.203125 2.390625 
C 15.796875 2.390625 15.40625 2.78125 15.40625 6.6875 
L 15.40625 25.90625 
C 15.40625 35.109375 21 42 28 42 
C 35.40625 42 36.203125 35.40625 36.203125 30.59375 
L 36.203125 6.6875 
C 36.203125 2.875 35.796875 2.390625 29.40625 2.390625 
L 29.40625 -0.203125 
C 31.796875 0 36.203125 0 38.796875 0 
C 41.40625 0 45.90625 0 48.296875 -0.203125 
L 48.296875 2.390625 
C 41.90625 2.390625 41.5 2.78125 41.5 6.6875 
z
" id="CMR17-110"/>
      </defs>
      <use transform="scale(0.996264)" xlink:href="#CMR17-115"/>
      <use transform="translate(35.801338 0)scale(0.996264)" xlink:href="#CMR17-116"/>
      <use transform="translate(71.082105 0)scale(0.996264)" xlink:href="#CMR17-114"/>
      <use transform="translate(106.362873 0)scale(0.996264)" xlink:href="#CMR17-97"/>
      <use transform="translate(152.05335 0)scale(0.996264)" xlink:href="#CMR17-105"/>
      <use transform="translate(176.924409 0)scale(0.996264)" xlink:href="#CMR17-110"/>
     </g>
    </g>
    <g id="text_18">
     <!-- $\times\mathdefault{10^{−21}}\mathdefault{}$ -->
     <g transform="translate(53.448213 23.204405)scale(0.2 -0.2)">
      <defs>
       <path d="M 38.90625 27.890625 
L 18.90625 47.796875 
C 17.703125 49 17.5 49.1875 16.703125 49.1875 
C 15.703125 49.1875 14.703125 48.296875 14.703125 47.1875 
C 14.703125 46.5 14.90625 46.296875 16 45.1875 
L 36 25.09375 
L 16 5 
C 14.90625 3.890625 14.703125 3.6875 14.703125 3 
C 14.703125 1.890625 15.703125 1 16.703125 1 
C 17.5 1 17.703125 1.1875 18.90625 2.390625 
L 38.796875 22.296875 
L 59.5 1.59375 
C 59.703125 1.5 60.40625 1 61 1 
C 62.203125 1 63 1.890625 63 3 
C 63 3.1875 63 3.59375 62.703125 4.09375 
C 62.59375 4.296875 46.703125 20 41.703125 25.09375 
L 60 43.390625 
C 60.5 44 62 45.296875 62.5 45.890625 
C 62.59375 46.09375 63 46.5 63 47.1875 
C 63 48.296875 62.203125 49.1875 61 49.1875 
C 60.203125 49.1875 59.796875 48.796875 58.703125 47.6875 
z
" id="CMSY10-2"/>
      </defs>
      <use transform="scale(0.996264)" xlink:href="#CMSY10-2"/>
      <use transform="translate(77.487468 0)scale(0.996264)" xlink:href="#CMR17-49"/>
      <use transform="translate(123.177945 0)scale(0.996264)" xlink:href="#CMR17-48"/>
      <use transform="translate(168.868422 36.153639)scale(0.697382)" xlink:href="#CMSY10-0"/>
      <use transform="translate(223.109415 36.153639)scale(0.697382)" xlink:href="#CMR17-50"/>
      <use transform="translate(255.092597 36.153639)scale(0.697382)" xlink:href="#CMR17-49"/>
     </g>
    </g>
   </g>
   <g id="line2d_152">
    <path clip-path="url(#p7ed9bfa38f)" d="M 91.493668 146.132255 
L 93.574204 169.189246 
L 97.712841 240.772207 
L 99.771011 266.986534 
L 101.821792 275.046835 
L 103.865218 262.597004 
L 105.901323 233.564003 
L 107.930139 196.862569 
L 109.9517 163.621176 
L 111.966037 143.80226 
L 113.973184 143.243526 
L 115.973172 161.989574 
L 117.966033 194.373688 
L 119.951801 230.779535 
L 121.930505 260.522232 
L 123.902179 274.97931 
L 125.866853 270.056766 
L 127.824558 247.295964 
L 131.719188 177.950163 
L 133.656175 151.188656 
L 135.586316 140.56288 
L 137.509642 148.959138 
L 139.426184 173.909478 
L 143.239035 242.726895 
L 145.135403 267.525592 
L 147.025107 276.023222 
L 148.908175 266.003743 
L 150.784637 240.302115 
L 154.517858 172.249692 
L 156.374675 148.188366 
L 158.225001 140.113079 
L 160.068866 150.061605 
L 161.906296 175.301787 
L 165.561969 242.658026 
L 167.380267 267.204202 
L 169.192243 276.482587 
L 170.997925 268.204728 
L 172.79734 244.595155 
L 176.37748 178.046083 
L 178.158259 151.966788 
L 179.93288 140.001904 
L 181.701369 145.047008 
L 183.463753 165.745445 
L 185.22006 196.891313 
L 186.970314 230.770051 
L 188.714542 259.08457 
L 190.452771 274.983039 
L 192.185026 274.694494 
L 193.911333 258.388108 
L 195.631718 230.069884 
L 197.346206 196.566076 
L 199.054823 165.858148 
L 200.757593 145.179328 
L 202.454543 139.326522 
L 204.145697 149.577123 
L 205.83108 173.447551 
L 209.184631 237.824855 
L 210.852848 263.484258 
L 212.515393 276.494294 
L 214.172289 273.978766 
L 215.823561 256.600835 
L 217.469232 228.358019 
L 219.109326 195.63501 
L 220.743868 165.74418 
L 222.37288 145.290429 
L 223.996387 138.725672 
L 225.614411 147.405642 
L 227.226976 169.342453 
L 232.032147 258.84661 
L 233.623106 274.976434 
L 235.20872 276.851287 
L 236.789012 264.159989 
L 238.364005 239.669249 
L 241.49818 177.470139 
L 243.057407 152.771264 
L 244.611424 139.571739 
L 246.160251 140.521402 
L 247.70391 155.34014 
L 249.242424 180.920662 
L 252.304101 242.274457 
L 253.827307 265.649868 
L 255.345452 277.492608 
L 256.858559 275.512949 
L 258.366647 260.186434 
L 259.869739 234.617185 
L 262.861013 174.033628 
L 264.349237 150.856747 
L 265.832547 138.803127 
L 267.310962 140.128254 
L 268.784503 154.498001 
L 270.253191 179.092317 
L 273.176085 239.039216 
L 274.630332 263.056302 
L 276.079804 276.768736 
L 277.524522 277.682762 
L 278.964505 265.705116 
L 280.399773 243.123438 
L 284.677479 158.502761 
L 286.094078 141.915103 
L 287.506059 137.292433 
L 288.913438 145.393201 
L 290.316237 164.695327 
L 291.714472 191.701618 
L 294.497329 249.077283 
L 295.881987 269.363783 
L 297.262156 278.952201 
L 298.637855 276.241 
L 300.009101 261.771285 
L 301.375913 238.101183 
L 304.096305 180.41048 
L 305.449922 156.228184 
L 306.799175 140.844617 
L 308.144084 136.792892 
L 309.484664 144.684055 
L 310.820935 163.134346 
L 312.152912 189.024683 
L 314.804059 245.402898 
L 316.123261 266.647868 
L 317.43824 278.356806 
L 318.749012 278.68993 
L 320.055593 267.660068 
L 321.358001 247.102777 
L 325.240352 165.696295 
L 326.526233 146.406988 
L 327.808023 136.822161 
L 329.085739 138.380692 
L 330.359398 150.775726 
L 331.629014 172.028206 
L 335.413773 252.288717 
L 336.667383 270.846363 
L 337.91703 279.913652 
L 339.162731 278.181986 
L 340.404501 265.973083 
L 341.642356 245.166809 
L 345.332585 165.807535 
L 346.554933 146.764592 
L 347.773443 136.688858 
L 348.98813 136.989505 
L 350.199008 147.563393 
L 351.406093 166.832235 
L 352.609399 191.990196 
L 355.004736 245.225741 
L 356.196796 265.771244 
L 357.385137 278.202753 
L 358.569772 280.828699 
L 359.750717 273.339774 
L 360.927986 256.831499 
L 362.101594 233.632439 
L 364.43788 180.497662 
L 365.600588 157.827256 
L 366.759691 142.004307 
L 367.915203 135.12353 
L 369.067137 138.057683 
L 370.215509 150.358725 
L 371.360332 170.336734 
L 374.773641 246.728108 
L 375.904403 266.454009 
L 377.031685 278.574416 
L 378.155498 281.562679 
L 379.275857 275.085253 
L 380.392776 260.027207 
L 381.506266 238.361387 
L 384.826303 163.513293 
L 385.926214 145.824655 
L 387.022762 135.949359 
L 388.115961 135.072049 
L 389.205823 143.250698 
L 390.292362 159.425707 
L 391.375589 181.566176 
L 394.605529 254.937804 
L 395.675637 271.78916 
L 396.742497 280.981188 
L 397.80612 281.457837 
L 398.86652 273.211198 
L 399.923708 257.267413 
L 400.977697 235.550723 
L 404.120587 162.986965 
L 405.161899 145.760041 
L 406.200071 135.757527 
L 407.235116 134.088607 
L 408.267046 140.897803 
L 409.295871 155.36226 
L 410.321604 175.798894 
L 413.380368 247.917696 
L 414.393848 266.53876 
L 415.404295 278.661508 
L 416.411718 282.982612 
L 417.416129 279.069959 
L 418.41754 267.397653 
L 419.415962 249.281457 
L 421.403882 202.188249 
L 422.393403 178.326168 
L 423.379979 157.691289 
L 424.363622 142.46768 
L 425.344341 134.242948 
L 426.322149 133.848605 
L 427.297055 141.283089 
L 428.269071 155.723652 
L 429.238207 175.623864 
L 432.128445 245.709319 
L 433.086169 264.460011 
L 434.041066 277.436613 
L 434.993148 283.35029 
L 435.942423 281.640522 
L 436.888903 272.521492 
L 437.832598 256.949737 
L 438.773518 236.518041 
L 441.57973 167.73276 
L 442.509652 149.88951 
L 443.43685 137.773526 
L 444.361333 132.534799 
L 445.283113 134.644464 
L 446.202198 143.858667 
L 447.118598 159.251974 
L 448.032324 179.315577 
L 450.757551 247.133769 
L 451.660675 265.118613 
L 452.561173 277.739924 
L 453.459055 283.847558 
L 454.354329 282.908523 
L 455.247006 275.047864 
L 456.137094 261.028048 
L 457.024604 242.170094 
L 460.54904 156.220482 
L 461.423795 141.92264 
L 462.296027 133.574717 
L 463.165744 131.889245 
L 464.032957 136.98015 
L 464.897673 148.360873 
L 465.759902 164.995467 
L 467.476935 207.763738 
L 469.184127 250.588162 
L 470.034054 267.354986 
L 470.881547 279.020311 
L 471.726615 284.613766 
L 472.569267 283.69139 
L 473.409511 276.366137 
L 474.247355 263.290755 
L 475.082809 245.595515 
L 478.400888 161.530791 
L 479.224516 145.991048 
L 480.045803 135.56991 
L 480.86476 131.091529 
L 481.681392 132.888743 
L 482.49571 140.782731 
L 483.307721 154.104364 
L 484.117432 171.754617 
L 487.333455 254.491069 
L 488.131795 269.940805 
L 488.927884 280.531811 
L 489.721731 285.462972 
L 490.513343 284.380739 
L 491.302728 277.400511 
L 492.089895 265.091445 
L 492.874851 248.426641 
L 494.43816 207.439418 
L 495.992718 166.752191 
L 496.766734 150.386797 
L 497.538585 138.369283 
L 498.308279 131.573553 
L 499.075824 130.477285 
L 499.841226 135.131845 
L 500.604493 145.164168 
L 501.365633 159.809814 
L 502.88156 198.316197 
L 504.389066 239.552302 
L 505.13968 257.475043 
L 505.888211 271.84603 
L 506.634665 281.658471 
L 507.37905 286.238831 
L 508.121374 285.290123 
L 508.861643 278.907871 
L 509.599865 267.568217 
L 510.336046 252.089581 
L 511.802316 213.312752 
L 513.260509 173.218923 
L 513.986594 156.132184 
L 514.71068 142.615912 
L 515.432775 133.570294 
L 516.152884 129.584587 
L 516.871016 130.901442 
L 517.587177 137.405151 
L 518.301374 148.634086 
L 519.013612 163.816008 
L 520.432244 201.744761 
L 521.843125 241.261886 
L 522.545676 258.375053 
L 523.246309 272.20464 
L 523.94503 281.871736 
L 524.641847 286.774008 
L 525.336766 286.620825 
L 526.029793 281.447817 
L 526.720935 271.610352 
L 527.410197 257.7568 
L 528.783111 221.775992 
L 530.828549 164.701109 
L 531.506672 149.60796 
L 532.182959 138.147927 
L 532.857418 131.007389 
L 533.530055 128.601856 
L 534.200875 131.054094 
L 534.869886 138.190442 
L 535.537092 149.555159 
L 536.2025 164.441564 
L 537.527948 200.983819 
L 539.502785 255.992671 
L 540.157532 270.010083 
L 540.810523 280.38492 
L 541.461764 286.529353 
L 542.111261 288.107085 
L 542.759019 285.049634 
L 543.405045 277.556859 
L 544.049344 266.082019 
L 545.332784 234.078473 
L 547.879194 161.300282 
L 548.511566 147.283319 
L 549.142255 136.676231 
L 549.771269 130.050983 
L 550.398613 127.754151 
L 551.024292 129.890675 
L 551.648312 136.32117 
L 552.270679 146.672652 
L 552.891397 160.361834 
L 554.12791 194.583628 
L 555.970455 248.722919 
L 556.581398 263.647066 
L 557.190731 275.614761 
L 557.798458 284.0088 
L 558.404585 288.405423 
L 559.009118 288.594089 
L 559.612062 284.585789 
L 560.213421 276.60968 
L 560.813201 265.098461 
L 562.008046 234.060978 
L 564.379014 163.791247 
L 564.967885 149.734578 
L 565.555219 138.628053 
L 566.141019 131.012804 
L 566.725291 127.251189 
L 567.308041 127.511025 
L 567.889272 131.75971 
L 568.468989 139.76834 
L 569.047199 151.1254 
L 570.199112 181.467664 
L 572.485055 250.543002 
L 573.61916 276.15358 
L 574.184013 284.369436 
L 574.747406 288.976631 
L 575.309343 289.775902 
L 575.86983 286.748318 
L 576.428871 280.053937 
L 576.98647 270.022129 
L 578.097363 241.99926 
L 580.849693 158.871457 
L 581.395926 146.099468 
L 581.940759 136.13332 
L 582.484196 129.406045 
L 583.026242 126.202317 
L 583.566902 126.647601 
L 584.106178 130.704547 
L 584.644077 138.176638 
L 585.180601 148.718793 
L 586.249548 176.997385 
L 588.898178 258.275649 
L 589.423869 270.710331 
L 589.948226 280.47274 
L 590.471252 287.162122 
L 590.992952 290.510875 
L 591.513329 290.394191 
L 592.032389 286.833546 
L 592.550134 279.994029 
L 593.06657 270.17572 
L 594.095528 243.388707 
L 597.151397 150.129274 
L 597.65623 139.41675 
L 598.159793 131.470481 
L 598.66209 126.594545 
L 599.163127 124.968296 
L 599.662907 126.640754 
L 600.161433 131.530239 
L 600.65871 139.429166 
L 601.649531 162.857832 
L 603.12649 209.549139 
L 604.592413 255.655661 
L 605.563616 278.288891 
L 606.047404 285.803256 
L 606.529989 290.387938 
L 607.011374 291.884783 
L 607.491563 290.252384 
L 607.97056 285.566226 
L 608.448369 278.014487 
L 609.400434 255.576873 
L 610.819709 210.406749 
L 612.228483 164.643923 
L 613.16188 141.082969 
L 613.626854 132.718684 
L 614.090681 127.042416 
L 614.553367 124.242464 
L 615.014915 124.40413 
L 615.475328 127.507938 
L 615.934609 133.431555 
L 616.392763 141.955281 
L 617.3057 165.493121 
L 618.666732 210.407838 
L 620.017797 254.534779 
L 620.913015 276.906275 
L 621.358987 284.787001 
L 621.803871 290.101019 
L 622.247671 292.683344 
L 622.69039 292.460959 
L 623.132032 289.454156 
L 623.5726 283.774773 
L 624.012097 275.621445 
L 624.887891 253.073915 
L 626.19363 209.632786 
L 627.489905 165.894303 
L 628.348872 142.729233 
L 628.7768 134.094651 
L 629.203695 127.797205 
L 629.629561 124.023434 
L 630.0544 122.879567 
L 630.478215 124.389153 
L 630.90101 128.493287 
L 631.322788 135.053391 
L 632.163304 154.622182 
L 632.999786 180.643811 
L 635.485276 264.255652 
L 636.305866 282.906176 
L 636.714691 289.031317 
L 637.122541 292.774072 
L 637.529418 294.035621 
L 637.935325 292.79038 
L 638.340266 289.085906 
L 638.744242 283.040677 
L 639.549313 264.729163 
L 640.350562 240.01615 
L 643.125156 146.467655 
L 643.909481 130.074298 
L 644.300255 125.026143 
L 644.690106 122.269509 
L 645.079038 121.869666 
L 645.467053 123.826975 
L 645.854154 128.077607 
L 646.240343 134.496015 
L 647.009997 153.051448 
L 648.157709 191.02542 
L 650.052683 258.160908 
L 650.804476 278.167653 
L 651.552759 290.927753 
L 651.925591 294.16838 
L 652.297553 295.199194 
L 652.668647 294.003637 
L 653.038876 290.62205 
L 653.408243 285.15001 
L 654.1444 268.573517 
L 654.877138 245.997 
L 657.774285 144.895246 
L 658.490218 129.368434 
L 658.846945 124.38802 
L 659.202848 121.427155 
L 659.557931 120.547926 
L 659.912194 121.762196 
L 660.265642 125.031878 
L 660.618275 130.270393 
L 661.321109 146.081757 
L 662.020715 167.657612 
L 663.755727 232.654209 
L 664.787224 267.284392 
L 665.470963 284.051122 
L 666.151583 293.985012 
L 666.490729 296.104799 
L 666.829101 296.259997 
L 667.166702 294.455684 
L 667.503535 290.740367 
L 668.174902 277.977705 
L 668.84322 259.147755 
L 669.840016 223.312201 
L 671.486338 161.021909 
L 672.139665 141.392725 
L 672.790043 127.400389 
L 673.114132 122.889252 
L 673.43749 120.162775 
L 673.760119 119.270019 
L 674.082022 120.221622 
L 674.4032 122.989997 
L 674.723655 127.510319 
L 675.362406 141.372433 
L 675.99829 160.62772 
L 677.261524 208.647471 
L 678.513481 256.365964 
L 679.445125 282.974967 
L 680.062762 293.656825 
L 680.370549 296.543382 
L 680.67765 297.717714 
L 680.984068 297.16445 
L 681.289804 294.901558 
L 681.59486 290.979641 
L 682.202941 278.515848 
L 682.808326 260.766413 
L 683.711379 227.317662 
L 685.499583 157.202701 
L 686.384831 131.993595 
L 686.97175 121.873332 
L 687.264241 119.114003 
L 687.556088 117.955343 
L 687.847294 118.411357 
L 688.13786 120.467138 
L 688.427788 124.079442 
L 689.005737 135.665827 
L 689.581154 152.309818 
L 690.439563 184.062027 
L 692.420744 262.899838 
L 693.260599 286.381427 
L 693.817461 295.663098 
L 694.094985 298.142175 
L 694.371906 299.125033 
L 694.648226 298.601607 
L 694.923946 296.586784 
L 695.473595 288.263763 
L 696.020864 274.744969 
L 696.837337 246.803649 
L 699.786211 133.874729 
L 700.314904 122.927249 
L 700.841329 117.23835 
L 701.103696 116.47449 
L 701.365501 117.112814 
L 701.626744 119.137852 
L 702.147556 127.182121 
L 702.666142 140.080126 
L 703.439876 166.692176 
L 706.485797 284.950669 
L 706.98594 294.959697 
L 707.483966 300.035851 
L 707.73219 300.635686 
L 707.979888 299.932952 
L 708.227063 297.942785 
L 708.719847 290.249678 
L 709.210555 278.022719 
L 709.942744 252.789615 
L 711.393317 189.954636 
L 712.350254 151.141515 
L 713.062709 129.572615 
L 713.535198 120.236283 
L 714.005716 115.496679 
L 714.240238 114.925754 
L 714.474271 115.562765 
L 714.707816 117.394664 
L 715.173448 124.51495 
L 715.637143 135.886838 
L 716.329076 159.533528 
L 717.472755 209.331861 
L 718.829611 267.027873 
L 719.50175 287.63307 
L 719.947535 296.68373 
L 720.391486 301.487388 
L 720.612776 302.227318 
L 720.83361 301.848992 
L 721.053991 300.3613 
L 721.493394 294.158269 
L 721.930995 283.942427 
L 722.584037 262.246133 
L 723.663555 215.205878 
L 725.15646 149.454671 
L 725.789779 129.198938 
L 726.209849 119.963936 
L 726.628213 114.608061 
L 726.836759 113.455311 
L 727.044881 113.334535 
L 727.252582 114.24303 
L 727.666721 119.081627 
L 728.079185 127.732335 
L 728.694759 146.946272 
L 729.509738 181.093127 
L 731.518663 271.757021 
L 732.113507 290.166815 
L 732.508085 298.387198 
L 732.901086 302.991433 
L 733.096997 303.883084 
L 733.292516 303.824298 
L 733.487645 302.819304 
L 733.876735 298.033961 
L 734.264273 289.742557 
L 734.84269 271.527863 
L 735.608556 239.156879 
L 737.869983 136.640878 
L 738.426994 121.131205 
L 738.796505 114.712346 
L 739.164561 111.691309 
L 739.348046 111.485957 
L 739.531169 112.151417 
L 739.896336 116.050041 
L 740.260069 123.222518 
L 740.802996 139.482156 
L 741.521943 169.20914 
L 743.994417 283.294693 
L 744.515509 297.361113 
L 744.861219 303.091257 
L 745.205588 305.694645 
L 745.377272 305.80037 
L 745.548624 305.109418 
L 745.890332 301.37819 
L 746.230719 294.644708 
L 746.738837 279.460282 
L 747.411761 251.612327 
L 750.214574 123.572823 
L 750.69977 113.374577 
L 751.02169 110.078663 
L 751.18219 109.518466 
L 751.342384 109.687205 
L 751.502272 110.58096 
L 751.821135 114.501439 
L 752.297157 125.424031 
L 752.92764 148.102927 
L 753.864429 193.711898 
L 755.402283 271.243954 
L 756.00934 292.852155 
L 756.461641 303.138851 
L 756.76176 306.833664 
L 756.911397 307.695532 
L 757.060753 307.894423 
L 757.209829 307.431414 
L 757.507143 304.545823 
L 757.803345 299.133406 
L 758.245571 286.642495 
L 758.831359 263.113891 
L 759.846021 210.460436 
L 761.131308 144.409254 
L 761.836133 119.502331 
L 762.255908 110.816654 
L 762.534466 107.933945 
L 762.67336 107.389881 
L 762.811998 107.446693 
L 762.95038 108.101905 
L 763.22638 111.180022 
L 763.638477 120.024184 
L 764.184413 138.839324 
L 764.861214 170.950438 
L 767.116548 287.435634 
L 767.637128 302.638965 
L 768.025087 308.749123 
L 768.282555 310.144745 
L 768.410939 310.029367 
L 768.66701 308.184732 
L 768.922155 304.237808 
L 769.303145 294.599632 
L 769.807928 275.62936 
L 770.558305 237.578377 
L 772.520185 131.817784 
L 773.121831 112.763587 
L 773.480249 106.708719 
L 773.718131 105.074557 
L 773.836755 104.988293 
L 773.955168 105.388318 
L 774.191362 107.630781 
L 774.544082 114.480919 
L 775.011462 129.570454 
L 775.591044 156.250764 
L 776.621462 216.222145 
L 777.747357 278.289386 
L 778.302927 299.444212 
L 778.743891 309.46061 
L 779.072593 312.520454 
L 779.181778 312.66995 
L 779.290772 312.384111 
L 779.508191 310.518839 
L 779.832899 304.579474 
L 780.26321 291.228977 
L 780.796905 267.202482 
L 781.745958 211.435817 
L 782.98859 139.079221 
L 783.600332 114.871663 
L 784.004667 105.558586 
L 784.306103 102.542278 
L 784.406237 102.311458 
L 784.5062 102.468405 
L 784.705613 103.936771 
L 785.003456 108.956206 
L 785.398212 120.57551 
L 785.887881 141.935231 
L 786.662732 186.987442 
L 788.274782 284.020655 
L 788.832773 305.147472 
L 789.201648 313.018658 
L 789.47668 315.381632 
L 789.56805 315.482892 
L 789.659266 315.241356 
L 789.841241 313.738503 
L 790.113062 308.994884 
L 790.473371 298.297488 
L 791.009337 274.172908 
L 791.803295 225.728569 
L 793.270982 133.574984 
L 793.863425 109.80419 
L 794.282431 101.028294 
L 794.532185 99.334182 
L 794.615162 99.373484 
L 794.78071 100.352943 
L 795.028014 104.033674 
L 795.355865 112.873675 
L 795.843634 133.604846 
L 796.486598 171.681635 
L 798.442782 295.805375 
L 798.900604 311.643134 
L 799.278754 317.977912 
L 799.429165 318.677258 
L 799.504188 318.631208 
L 799.653875 317.752314 
L 799.877505 314.499394 
L 800.17401 306.703608 
L 800.615221 288.336241 
L 801.269154 249.261448 
L 803.313729 115.645023 
L 803.793354 100.364018 
L 804.065061 96.467463 
L 804.200274 95.887405 
L 804.267722 95.940294 
L 804.402301 96.727889 
L 804.603378 99.588148 
L 804.936413 108.638375 
L 805.398306 129.336977 
L 806.049461 171.008644 
L 807.943349 300.900343 
L 808.43374 317.677205 
L 808.737186 322.025924 
L 808.857915 322.393026 
L 808.978273 321.976071 
L 809.158121 319.898396 
L 809.456039 312.695204 
L 809.869319 295.437773 
L 810.452123 259.275423 
L 812.697027 104.257728 
L 813.076172 94.148728 
L 813.291049 91.991849 
L 813.344567 91.870576 
L 813.398006 91.916218 
L 813.504644 92.505808 
L 813.716968 95.648102 
L 814.033088 105.053325 
L 814.450215 125.40465 
L 815.066691 168.438989 
L 816.900208 306.144205 
L 817.331353 321.97299 
L 817.615654 326.409698 
L 817.70987 326.76558 
L 817.756875 326.732854 
L 817.897482 325.797729 
L 818.130468 321.5045 
L 818.453822 310.071721 
L 818.91011 284.246008 
L 819.582313 231.251921 
L 821.011203 115.845928 
L 821.472745 94.718688 
L 821.803914 87.76103 
L 821.968097 87.072505 
L 822.049841 87.42624 
L 822.212637 89.510187 
L 822.455114 95.967867 
L 822.815008 112.542071 
L 823.326885 148.288537 
L 824.28548 235.473593 
L 825.101903 301.380914 
L 825.572783 324.447745 
L 825.893872 331.455318 
L 826.035308 332.097505 
L 826.070546 332.020137 
L 826.175969 331.221769 
L 826.385521 327.125562 
L 826.696641 315.078669 
L 827.105566 289.465775 
L 827.739534 233.690694 
L 829.115602 109.08252 
L 829.577245 86.872918 
L 829.849829 81.501861 
L 829.939967 81.087533 
L 829.999859 81.192742 
L 830.119167 82.309931 
L 830.326439 87.105021 
L 830.619228 99.839293 
L 831.051221 129.98543 
L 831.72492 195.656449 
L 832.880367 307.578872 
L 833.31968 331.572675 
L 833.624034 338.487939 
L 833.724445 338.875071 
L 833.749467 338.82244 
L 833.849236 338.019476 
L 834.022604 334.376242 
L 834.291918 323.199962 
L 834.676956 296.575132 
L 835.263108 238.023327 
L 836.618056 98.186035 
L 837.019389 77.874067 
L 837.268021 73.378579 
L 837.309101 73.269879 
L 837.35008 73.343044 
L 837.452083 74.314596 
L 837.634108 78.835699 
L 837.913271 92.503986 
L 838.303829 123.915463 
L 838.927708 194.836091 
L 840.017147 317.748417 
L 840.44103 342.793042 
L 840.689343 347.95378 
L 840.738475 348.077753 
L 840.787432 347.901796 
L 840.900988 346.339904 
L 841.093471 340.03356 
L 841.392695 321.466619 
L 841.821605 278.814565 
L 842.666514 166.040962 
L 843.350547 88.634806 
L 843.7296 66.201477 
L 843.958618 62.142079 
L 843.996333 62.205269 
L 844.083832 63.159793 
L 844.244494 67.849004 
L 844.499064 82.869274 
L 844.875534 120.42305 
L 845.491769 208.379335 
L 846.392644 331.653881 
L 846.769264 357.649376 
L 846.993167 362.073841 
L 847.029918 361.954256 
L 847.130162 360.39578 
L 847.309383 353.125081 
L 847.579616 331.674035 
L 847.988765 278.56702 
L 849.58443 48.447985 
L 849.793573 43.500769 
L 849.799799 43.503293 
L 849.843205 43.766159 
L 849.947317 46.154036 
L 850.132524 56.520871 
L 850.419064 87.297118 
L 850.853236 161.684057 
L 852.033255 375.314877 
L 852.297123 389.144399 
L 852.341202 389.428042 
L 852.391971 389.002193 
L 852.402759 388.807064 
L 852.402759 388.807064 
" style="fill:none;stroke:#0000ff;stroke-linecap:square;"/>
   </g>
   <g id="patch_3">
    <path d="M 53.448213 406.724405 
L 53.448213 26.204405 
" style="fill:none;stroke:#000000;stroke-linecap:square;stroke-linejoin:miter;stroke-width:0.5;"/>
   </g>
   <g id="patch_4">
    <path d="M 890.448213 406.724405 
L 890.448213 26.204405 
" style="fill:none;stroke:#000000;stroke-linecap:square;stroke-linejoin:miter;stroke-width:0.5;"/>
   </g>
   <g id="patch_5">
    <path d="M 53.448213 406.724405 
L 890.448213 406.724405 
" style="fill:none;stroke:#000000;stroke-linecap:square;stroke-linejoin:miter;stroke-width:0.5;"/>
   </g>
   <g id="patch_6">
    <path d="M 53.448213 26.204405 
L 890.448213 26.204405 
" style="fill:none;stroke:#000000;stroke-linecap:square;stroke-linejoin:miter;stroke-width:0.5;"/>
   </g>
   <g id="text_19">
    <!-- h22 mode waveform for m1 = 10 $M_\odot$, m2 = 10 $M_\odot$and eccentricity = 0 -->
    <g transform="translate(126.173176 20.204405)scale(0.24 -0.24)">
     <defs>
      <path d="M 41.5 30.203125 
C 41.5 35.296875 40.5 43.59375 28.703125 43.59375 
C 20.5 43.59375 16.5 37 15.296875 33.703125 
L 15.203125 33.703125 
L 15.203125 68.6875 
L 3.296875 67.59375 
L 3.296875 65 
C 9.203125 65 10.09375 64.40625 10.09375 59.640625 
L 10.09375 6.65625 
C 10.09375 2.875 9.703125 2.390625 3.296875 2.390625 
L 3.296875 -0.203125 
C 5.703125 0 10.09375 0 12.703125 0 
C 15.296875 0 19.796875 0 22.203125 -0.203125 
L 22.203125 2.390625 
C 15.796875 2.390625 15.40625 2.78125 15.40625 6.6875 
L 15.40625 25.90625 
C 15.40625 35.109375 21 42 28 42 
C 35.40625 42 36.203125 35.40625 36.203125 30.59375 
L 36.203125 6.6875 
C 36.203125 2.875 35.796875 2.390625 29.40625 2.390625 
L 29.40625 -0.203125 
C 31.796875 0 36.203125 0 38.796875 0 
C 41.40625 0 45.90625 0 48.296875 -0.203125 
L 48.296875 2.390625 
C 41.90625 2.390625 41.5 2.78125 41.5 6.6875 
z
" id="CMR17-104"/>
      <path d="M 43.09375 21.1875 
C 43.09375 34 33.796875 44 22.90625 44 
C 12 44 2.703125 34 2.703125 21.1875 
C 2.703125 8.609375 12 -1 22.90625 -1 
C 33.796875 -1 43.09375 8.609375 43.09375 21.1875 
z
M 22.90625 0.796875 
C 18.203125 0.796875 14.203125 3.59375 11.90625 7.5 
C 9.40625 11.984375 9.09375 17.59375 9.09375 22 
C 9.09375 26.203125 9.296875 31.40625 11.90625 35.90625 
C 13.90625 39.203125 17.796875 42.40625 22.90625 42.40625 
C 27.40625 42.40625 31.203125 39.90625 33.59375 36.40625 
C 36.703125 31.703125 36.703125 25.109375 36.703125 22 
C 36.703125 18.09375 36.5 12.109375 33.796875 7.296875 
C 31 2.703125 26.703125 0.796875 22.90625 0.796875 
z
" id="CMR17-111"/>
      <path d="M 29.203125 67.59375 
L 29.203125 65 
C 35.09375 65 36 64.40625 36 59.6875 
L 36 36.640625 
C 35.59375 37.140625 31.5 43.59375 23.40625 43.59375 
C 13.203125 43.59375 3.296875 34.5 3.296875 21.3125 
C 3.296875 8.203125 12.59375 -1 22.40625 -1 
C 30.90625 -1 35.296875 5.265625 35.796875 5.9375 
L 35.796875 -0.984375 
L 47.90625 -0.984375 
L 47.90625 2 
C 42 2 41.09375 2.59375 41.09375 7.390625 
L 41.09375 68.6875 
z
M 35.796875 11.796875 
C 35.796875 8.796875 34 6.09375 31.703125 4.09375 
C 28.296875 1.09375 24.90625 0.59375 23 0.59375 
C 20.09375 0.59375 9.703125 2.09375 9.703125 21.1875 
C 9.703125 40.8125 21.296875 42 23.90625 42 
C 28.5 42 32.203125 39.40625 34.5 35.796875 
C 35.796875 33.703125 35.796875 33.40625 35.796875 31.609375 
z
" id="CMR17-100"/>
      <path d="M 58.203125 34.109375 
C 60.203125 40 64.203125 40 65.703125 40 
L 65.703125 42.6875 
C 63.703125 42.6875 61.703125 42.6875 59.703125 42.6875 
C 57.796875 42.6875 53.5 42.6875 51.796875 42.78125 
L 51.796875 40 
C 54.90625 40 56.59375 38.203125 56.59375 35.71875 
C 56.59375 35.015625 56.40625 34.125 56.203125 33.4375 
L 46.796875 6.359375 
L 36.59375 35.546875 
C 36.40625 36.234375 36.09375 37.03125 36.09375 37.421875 
C 36.09375 40 39.5 40 41.09375 40 
L 41.09375 42.78125 
C 38.796875 42.6875 34.59375 42.6875 32.203125 42.6875 
C 29.703125 42.6875 27.09375 42.6875 24.796875 42.78125 
L 24.796875 40 
C 30.296875 40 30.296875 39.796875 32.40625 33.578125 
L 23.203125 7.046875 
L 13.296875 35.640625 
C 12.796875 36.921875 12.796875 37.125 12.796875 37.421875 
C 12.796875 40 16.203125 40 17.796875 40 
L 17.796875 42.78125 
C 15.40625 42.6875 11.203125 42.6875 8.703125 42.6875 
C 6.5 42.6875 3.09375 42.6875 1 42.78125 
L 1 40 
C 5.40625 40 6.5 39.703125 7.59375 36.421875 
L 19.90625 0.765625 
C 20.296875 -0.515625 20.59375 -0.8125 21.40625 -0.8125 
C 22.09375 -0.8125 22.5 -0.609375 23 0.875 
L 33.296875 30.9375 
L 43.703125 0.875 
C 44.203125 -0.609375 44.59375 -0.8125 45.296875 -0.8125 
C 46.09375 -0.8125 46.40625 -0.515625 46.796875 0.78125 
z
" id="CMR17-119"/>
      <path d="M 39.09375 33.796875 
C 40 36 41.59375 40 47.40625 40 
L 47.40625 42.59375 
C 45.5 42.59375 43 42.59375 41.09375 42.59375 
C 39 42.59375 35.703125 42.59375 33.703125 42.6875 
L 33.703125 40.09375 
C 36.203125 39.890625 37.59375 38.703125 37.59375 36.109375 
C 37.59375 35.203125 37.59375 35 37 33.609375 
L 26 5.890625 
L 14.09375 35.71875 
C 13.5 37.015625 13.5 37.203125 13.5 37.609375 
C 13.5 40 16.796875 40 18.296875 40 
L 18.296875 42.6875 
C 15.90625 42.59375 11.5 42.59375 9 42.59375 
C 6.296875 42.59375 3.203125 42.59375 1 42.6875 
L 1 40 
C 4.796875 40 6.90625 40 8.09375 36.90625 
L 22.59375 0.6875 
C 23.203125 -0.796875 23.296875 -1 24.203125 -1 
C 25.09375 -1 25.203125 -0.796875 25.796875 0.6875 
z
" id="CMR17-118"/>
      <path d="M 15.296875 40 
L 26.703125 40 
L 26.703125 42.578125 
L 15.09375 42.578125 
L 15.09375 54.59375 
C 15.09375 62.84375 19.296875 68 23.59375 68 
C 24.90625 68 26.40625 67.609375 27.40625 66.90625 
C 26.59375 66.703125 24.5 66.015625 24.5 63.546875 
C 24.5 60.953125 26.5 60.15625 27.90625 60.15625 
C 29.296875 60.15625 31.296875 60.953125 31.296875 63.546875 
C 31.296875 67.3125 27.703125 69.59375 23.703125 69.59375 
C 18 69.59375 10.203125 64.9375 10.203125 54.390625 
L 10.203125 42.578125 
L 2.203125 42.578125 
L 2.203125 40 
L 10.203125 40 
L 10.203125 6.671875 
C 10.203125 2.875 9.796875 2.390625 3.40625 2.390625 
L 3.40625 -0.203125 
C 5.796875 0 10.40625 0 13 0 
C 15.90625 0 21 0 23.703125 -0.203125 
L 23.703125 2.390625 
C 16.5 2.390625 15.296875 2.390625 15.296875 6.859375 
z
" id="CMR17-102"/>
      <path d="M 64.296875 31.515625 
C 65.796875 31.515625 67.296875 31.515625 67.296875 33.203125 
C 67.296875 35 65.59375 35 63.90625 35 
L 8 35 
C 6.296875 35 4.59375 35 4.59375 33.203125 
C 4.59375 31.515625 6.09375 31.515625 7.59375 31.515625 
z
M 63.90625 14 
C 65.59375 14 67.296875 14 67.296875 15.796875 
C 67.296875 17.484375 65.796875 17.484375 64.296875 17.484375 
L 7.59375 17.484375 
C 6.09375 17.484375 4.59375 17.484375 4.59375 15.796875 
C 4.59375 14 6.296875 14 8 14 
z
" id="CMR17-61"/>
      <path d="M 90.796875 60.71875 
C 91.703125 64.109375 91.90625 65.109375 99 65.109375 
C 100.90625 65.109375 101.796875 65.109375 101.796875 67 
C 101.796875 68 101.09375 68 99.203125 68 
L 87.203125 68 
C 84.703125 68 84.59375 67.90625 83.5 66.296875 
L 47 8.78125 
L 39.5 65.796875 
C 39.203125 68 39.09375 68 36.5 68 
L 24.09375 68 
C 22.203125 68 21.296875 68 21.296875 66.109375 
C 21.296875 65.109375 22.203125 65.109375 23.703125 65.109375 
C 29.796875 65.109375 29.796875 64.3125 29.796875 63.21875 
C 29.796875 63.03125 29.796875 62.421875 29.40625 60.921875 
L 16.59375 9.90625 
C 15.40625 5.109375 13.09375 2.90625 6.40625 2.90625 
C 6.09375 2.90625 4.90625 2.90625 4.90625 1.140625 
C 4.90625 0 5.796875 0 6.203125 0 
C 8.203125 0 13.296875 0 15.296875 0 
L 20.09375 0 
C 21.5 0 23.203125 0 24.59375 0 
C 25.296875 0 26.40625 0 26.40625 1.90625 
C 26.40625 2.8125 25.40625 2.90625 25 2.90625 
C 21.703125 2.90625 18.5 3.5 18.5 7.09375 
C 18.5 8.09375 18.5 8.1875 18.90625 9.578125 
L 32.703125 64.515625 
L 32.796875 64.515625 
L 41.09375 2.6875 
C 41.40625 0.296875 41.5 0 42.40625 0 
C 43.5 0 44 0.796875 44.5 1.703125 
L 84.703125 65.015625 
L 84.796875 65.015625 
L 70.296875 7.390625 
C 69.40625 3.90625 69.203125 2.90625 62.203125 2.90625 
C 60.296875 2.90625 59.296875 2.90625 59.296875 1.09375 
C 59.296875 0 60.203125 0 60.796875 0 
C 62.5 0 64.5 0 66.203125 0 
L 78 0 
C 79.703125 0 81.796875 0 83.5 0 
C 84.296875 0 85.40625 0 85.40625 1.90625 
C 85.40625 2.90625 84.5 2.90625 83 2.90625 
C 76.90625 2.90625 76.90625 3.65625 76.90625 4.59375 
C 76.90625 4.703125 76.90625 5.390625 77.09375 6.1875 
z
" id="CMMI12-77"/>
      <path d="M 72.21875 25 
C 72.21875 43.4375 57.21875 58.359375 38.90625 58.359375 
C 20.3125 58.359375 5.5 43.234375 5.5 25 
C 5.5 6.5625 20.5 -8.359375 38.8125 -8.359375 
C 57.421875 -8.359375 72.21875 6.765625 72.21875 25 
z
M 38.90625 -5.859375 
C 21.703125 -5.859375 8 8.0625 8 25 
C 8 42.234375 22 55.859375 38.8125 55.859375 
C 56.015625 55.859375 69.71875 41.9375 69.71875 25 
C 69.71875 7.765625 55.71875 -5.859375 38.90625 -5.859375 
z
M 45.703125 25 
C 45.703125 28.796875 42.59375 31.90625 38.90625 31.90625 
C 34.90625 31.90625 32 28.59375 32 25 
C 32 21.203125 35.09375 18.09375 38.796875 18.09375 
C 42.796875 18.09375 45.703125 21.40625 45.703125 25 
z
" id="CMSY10-12"/>
      <path d="M 15.796875 1.59375 
C 16 0.703125 16 0.390625 16 -1.203125 
C 16 -7.234375 14 -12.765625 9.796875 -17.796875 
C 9.296875 -18.28125 9.296875 -18.484375 9.296875 -18.703125 
C 9.296875 -19.09375 9.703125 -19.5 10.09375 -19.5 
C 10.703125 -19.5 17.59375 -12.484375 17.59375 -1.359375 
C 17.59375 1.9375 17.203125 8.15625 12.5 8.15625 
C 10.296875 8.15625 8.40625 6.671875 8.40625 4.078125 
C 8.40625 1.5 10.296875 0 12.5 0 
C 13.703125 0 15 0.5 15.796875 1.59375 
z
" id="CMR17-44"/>
      <path d="M 39 34.328125 
C 41.5 40.40625 46 40.40625 47.40625 40.40625 
L 47.40625 43 
C 45.5 43 43 43 41.09375 43 
C 39 43 35.703125 43 33.703125 43.09375 
L 33.703125 40.5 
C 37.5 40.203125 37.59375 37.40625 37.59375 36.609375 
C 37.59375 35.625 37.40625 35.125 36.90625 33.921875 
L 26 7.015625 
L 14.09375 36.03125 
C 13.59375 37.21875 13.59375 37.90625 13.59375 38.015625 
C 13.59375 40.203125 15.90625 40.40625 18.296875 40.40625 
L 18.296875 43.09375 
C 15.90625 43 11.59375 43 9.09375 43 
C 6.40625 43 3.203125 43 1 43.09375 
L 1 40.40625 
C 6.40625 40.40625 7 39.90625 8.296875 36.71875 
L 23.203125 0.234375 
C 18.703125 -11.53125 16.09375 -18.40625 9.796875 -18.40625 
C 8.703125 -18.40625 6.203125 -18.109375 4.40625 -16.3125 
C 6.703125 -16.109375 7.703125 -14.71875 7.703125 -13.015625 
C 7.703125 -11.328125 6.5 -9.828125 4.5 -9.828125 
C 2.296875 -9.828125 1.203125 -11.328125 1.203125 -13.125 
C 1.203125 -17.109375 5.296875 -20 9.796875 -20 
C 15.59375 -20 19.203125 -14.40625 21.203125 -9.4375 
z
" id="CMR17-121"/>
     </defs>
     <use transform="scale(0.996264)" xlink:href="#CMR17-104"/>
     <use transform="translate(50.89537 0)scale(0.996264)" xlink:href="#CMR17-50"/>
     <use transform="translate(96.585847 0)scale(0.996264)" xlink:href="#CMR17-50"/>
     <use transform="translate(172.35229 0)scale(0.996264)" xlink:href="#CMR17-109"/>
     <use transform="translate(249.27188 0)scale(0.996264)" xlink:href="#CMR17-111"/>
     <use transform="translate(297.564796 0)scale(0.996264)" xlink:href="#CMR17-100"/>
     <use transform="translate(348.460166 0)scale(0.996264)" xlink:href="#CMR17-101"/>
     <use transform="translate(419.021793 0)scale(0.996264)" xlink:href="#CMR17-119"/>
     <use transform="translate(482.929219 0)scale(0.996264)" xlink:href="#CMR17-97"/>
     <use transform="translate(526.017242 0)scale(0.996264)" xlink:href="#CMR17-118"/>
     <use transform="translate(571.707704 0)scale(0.996264)" xlink:href="#CMR17-101"/>
     <use transform="translate(612.193365 0)scale(0.996264)" xlink:href="#CMR17-102"/>
     <use transform="translate(639.666877 0)scale(0.996264)" xlink:href="#CMR17-111"/>
     <use transform="translate(685.357354 0)scale(0.996264)" xlink:href="#CMR17-114"/>
     <use transform="translate(720.638122 0)scale(0.996264)" xlink:href="#CMR17-109"/>
     <use transform="translate(827.633678 0)scale(0.996264)" xlink:href="#CMR17-102"/>
     <use transform="translate(855.107191 0)scale(0.996264)" xlink:href="#CMR17-111"/>
     <use transform="translate(900.797668 0)scale(0.996264)" xlink:href="#CMR17-114"/>
     <use transform="translate(966.154402 0)scale(0.996264)" xlink:href="#CMR17-109"/>
     <use transform="translate(1043.073992 0)scale(0.996264)" xlink:href="#CMR17-49"/>
     <use transform="translate(1118.840435 0)scale(0.996264)" xlink:href="#CMR17-61"/>
     <use transform="translate(1220.63119 0)scale(0.996264)" xlink:href="#CMR17-49"/>
     <use transform="translate(1266.321667 0)scale(0.996264)" xlink:href="#CMR17-48"/>
     <use transform="translate(1342.088111 0)scale(0.996264)" xlink:href="#CMMI12-77"/>
     <use transform="translate(1436.461536 -14.943915)scale(0.697382)" xlink:href="#CMSY10-12"/>
     <use transform="translate(1491.200661 0)scale(0.996264)" xlink:href="#CMR17-44"/>
     <use transform="translate(1546.147686 0)scale(0.996264)" xlink:href="#CMR17-109"/>
     <use transform="translate(1623.067276 0)scale(0.996264)" xlink:href="#CMR17-50"/>
     <use transform="translate(1698.833719 0)scale(0.996264)" xlink:href="#CMR17-61"/>
     <use transform="translate(1800.624474 0)scale(0.996264)" xlink:href="#CMR17-49"/>
     <use transform="translate(1846.314951 0)scale(0.996264)" xlink:href="#CMR17-48"/>
     <use transform="translate(1922.081395 0)scale(0.996264)" xlink:href="#CMMI12-77"/>
     <use transform="translate(2016.45482 -14.943915)scale(0.697382)" xlink:href="#CMSY10-12"/>
     <use transform="translate(2071.193945 0)scale(0.996264)" xlink:href="#CMR17-97"/>
     <use transform="translate(2116.884422 0)scale(0.996264)" xlink:href="#CMR17-110"/>
     <use transform="translate(2167.779792 0)scale(0.996264)" xlink:href="#CMR17-100"/>
     <use transform="translate(2248.751128 0)scale(0.996264)" xlink:href="#CMR17-101"/>
     <use transform="translate(2289.236788 0)scale(0.996264)" xlink:href="#CMR17-99"/>
     <use transform="translate(2329.722449 0)scale(0.996264)" xlink:href="#CMR17-99"/>
     <use transform="translate(2370.208109 0)scale(0.996264)" xlink:href="#CMR17-101"/>
     <use transform="translate(2410.69377 0)scale(0.996264)" xlink:href="#CMR17-110"/>
     <use transform="translate(2458.986686 0)scale(0.996264)" xlink:href="#CMR17-116"/>
     <use transform="translate(2494.267453 0)scale(0.996264)" xlink:href="#CMR17-114"/>
     <use transform="translate(2529.548221 0)scale(0.996264)" xlink:href="#CMR17-105"/>
     <use transform="translate(2554.41928 0)scale(0.996264)" xlink:href="#CMR17-99"/>
     <use transform="translate(2594.90494 0)scale(0.996264)" xlink:href="#CMR17-105"/>
     <use transform="translate(2619.775999 0)scale(0.996264)" xlink:href="#CMR17-116"/>
     <use transform="translate(2652.454313 0)scale(0.996264)" xlink:href="#CMR17-121"/>
     <use transform="translate(2730.823195 0)scale(0.996264)" xlink:href="#CMR17-61"/>
     <use transform="translate(2832.61395 0)scale(0.996264)" xlink:href="#CMR17-48"/>
    </g>
   </g>
  </g>
 </g>
 <defs>
  <clipPath id="p7ed9bfa38f">
   <rect height="380.52" width="837" x="53.448213" y="26.204405"/>
  </clipPath>
 </defs>
</svg>
